<?xml version="1.0" encoding="UTF-8"?>
<!DOCTYPE svg PUBLIC "-//W3C//DTD SVG 1.1//EN" "http://www.w3.org/Graphics/SVG/1.1/DTD/svg11.dtd">
<!-- Creator: CorelDRAW X6 -->
<svg xmlns="http://www.w3.org/2000/svg" xml:space="preserve" width="0.608547in" height="0.609012in" version="1.1" style="shape-rendering:geometricPrecision; text-rendering:geometricPrecision; image-rendering:optimizeQuality; fill-rule:evenodd; clip-rule:evenodd"
viewBox="0 0 60 60"
 xmlns:xlink="http://www.w3.org/1999/xlink">
 <defs>
  <style type="text/css">
   <![CDATA[
    .str0 {stroke:#ab5410;stroke-width:2.7172}
    .str1 {stroke:#ab5410;stroke-width:4.07541}
    .fil0 {fill:none}
    .fil2 {fill:#ab5410}
    .fil1 {fill:#ab5410;fill-rule:nonzero}
   ]]>
  </style>
 </defs>
 <g id="Layer_x0020_1">
  <metadata id="CorelCorpID_0Corel-Layer"/>
  <g id="_702688528">
   <polyline class="fil0 str0" points="17,13 17,34 41,34 "/>
   <g>
    <path class="fil1" d="M29 21l-7 5 -1 -1 7 -5 1 0 0 1zm-1 -1l1 0 0 1 -1 0zm3 5l-3 -4 1 -1 3 4 0 1 -1 0zm1 0l-1 0 0 -1 1 0zm4 -3l-4 3 -1 -1 4 -3 1 1zm-3 -4l8 -1 -3 8 -5 -6z"/>
   </g>
   <rect class="fil2" transform="matrix(1.63203 -1.63203 0.858864 0.858864 41.4121 47.2772)" width="4" height="16" rx="4" ry="4"/>
   <circle class="fil0 str1" cx="27" cy="27" r="25"/>
  </g>
 </g>
</svg>
