<?xml version="1.0" encoding="UTF-8"?>
<!DOCTYPE svg PUBLIC "-//W3C//DTD SVG 1.1//EN" "http://www.w3.org/Graphics/SVG/1.1/DTD/svg11.dtd">
<!-- Creator: CorelDRAW X6 -->
<svg xmlns="http://www.w3.org/2000/svg" xml:space="preserve" width="0.705394in" height="0.842937in" version="1.1" style="shape-rendering:geometricPrecision; text-rendering:geometricPrecision; image-rendering:optimizeQuality; fill-rule:evenodd; clip-rule:evenodd"
viewBox="0 0 101 120"
 xmlns:xlink="http://www.w3.org/1999/xlink">
 <defs>
  <style type="text/css">
   <![CDATA[
    .fil1 {fill:#ab5410}
    .fil0 {fill:#ab5410;fill-rule:nonzero}
   ]]>
  </style>
 </defs>
 <g id="Layer_x0020_1">
  <metadata id="CorelCorpID_0Corel-Layer"/>
  <g id="_714707024">
   <path class="fil0" d="M83 31c8,7 14,16 17,26l0 0c3,13 1,27 -6,38 -7,11 -17,20 -31,23l0 0c-13,3 -27,1 -38,-6 -11,-7 -20,-17 -23,-31l0 0c-3,-13 -1,-27 6,-38 3,-5 7,-9 11,-13l2 3c-4,3 -7,7 -10,12 -6,10 -8,23 -5,35l0 0c3,12 11,22 21,28 10,6 23,8 35,5l0 0c12,-3 22,-11 28,-21 6,-10 8,-23 5,-35l0 0c-2,-10 -8,-18 -15,-24l2 -3z"/>
   <path class="fil0" d="M30 48c-2,2 -4,4 -5,6 -4,7 -5,15 -3,23l0 0c2,8 7,14 14,18 7,4 15,5 23,3l0 0c8,-2 14,-7 18,-14 4,-7 5,-15 3,-23l0 0c-1,-6 -4,-10 -8,-14l2 -4c5,4 8,10 10,16l0 0c2,9 1,18 -4,26 -4,7 -12,13 -21,15l0 0c-9,2 -18,1 -26,-4 -7,-4 -13,-12 -15,-21l0 0c-2,-9 -1,-18 4,-26 2,-3 4,-5 6,-8l2 3z"/>
   <path class="fil0" d="M65 58c2,2 3,5 4,7 1,5 0,10 -2,15 -3,4 -7,8 -12,9 -5,1 -10,0 -15,-2 -4,-3 -8,-7 -9,-12 -1,-5 0,-10 2,-15 1,-1 1,-2 2,-3l2 4c0,0 -1,1 -1,1 -2,3 -3,7 -2,11 1,4 4,7 7,9 3,2 7,3 11,2 4,-1 7,-4 9,-7 2,-3 3,-7 2,-11 0,-2 -1,-3 -2,-5l2 -4z"/>
   <path class="fil1" d="M50 0c14,0 25,11 25,25 0,4 -1,7 -2,10l-22 34 -23 -34c-1,-3 -2,-7 -2,-10 0,-14 11,-25 25,-25zm0 9c9,0 16,7 16,16 0,9 -7,16 -16,16 -9,0 -16,-7 -16,-16 0,-9 7,-16 16,-16z"/>
   <ellipse class="fil1" cx="51" cy="72" rx="9" ry="5"/>
  </g>
 </g>
</svg>
