<?xml version="1.0" encoding="UTF-8"?>
<!DOCTYPE svg PUBLIC "-//W3C//DTD SVG 1.1//EN" "http://www.w3.org/Graphics/SVG/1.1/DTD/svg11.dtd">
<!-- Creator: CorelDRAW X6 -->
<svg xmlns="http://www.w3.org/2000/svg" xml:space="preserve" width="0.542449in" height="0.542953in" version="1.1" style="shape-rendering:geometricPrecision; text-rendering:geometricPrecision; image-rendering:optimizeQuality; fill-rule:evenodd; clip-rule:evenodd"
viewBox="0 0 119 119"
 xmlns:xlink="http://www.w3.org/1999/xlink">
 <defs>
  <style type="text/css">
   <![CDATA[
    .fil0 {fill:#ab5410}
   ]]>
  </style>
 </defs>
 <g id="Layer_x0020_1">
  <metadata id="CorelCorpID_0Corel-Layer"/>
  <path class="fil0" d="M25 27l52 0c-5,7 -10,13 -16,19l-8 0 0 7c-10,8 -20,14 -29,17l0 -43zm79 14c1,3 2,5 2,9 0,5 -2,10 -5,14 -2,3 -6,5 -10,6 7,2 11,4 15,8 3,4 5,9 5,15 0,5 -1,9 -3,13 -2,4 -5,7 -9,9 -2,1 -6,2 -11,3 -6,1 -11,1 -13,1l-49 0 0 -36c38,-7 64,-26 79,-42zm-50 58l14 0c5,0 8,-1 10,-3 2,-2 3,-4 3,-7 0,-3 -1,-5 -3,-7 -2,-2 -5,-2 -10,-2l-14 0 0 19z"/>
  <path class="fil0" d="M74 15l36 -15 9 37 -13 -8c0,0 -41,53 -106,50 0,0 53,-2 88,-58l0 -1 -14 -7z"/>
 </g>
</svg>
