<svg xmlns="http://www.w3.org/2000/svg" viewBox="0 0 612 612" width="200" height="200">
	<style>
		tspan { white-space:pre }
		.shp0 { fill: #ffffff } 
		.shp1 { fill: #000000 } 
	</style>
	<path id="Shape 2" class="shp0" d="M306 609.19C138.33 609.19 2.81 473.67 2.81 306C2.81 138.33 138.33 2.81 306 2.81C473.67 2.81 609.19 138.33 609.19 306C609.19 473.67 473.67 609.19 306 609.19Z" />
	<path id="Shape 1" class="shp0" d="M151 157L450 157L450 456L151 456L151 157Z" />
	<g id="Layer">
		<path id="Layer" fill-rule="evenodd" class="shp1" d="M307 583.69C154.19 583.69 30.31 459.81 30.31 307C30.31 154.19 154.19 30.31 307 30.31C459.81 30.31 583.69 154.19 583.69 307C583.69 459.81 459.81 583.69 307 583.69ZM200.27 431.51L307 324.78L413.73 431.51L431.51 413.73L324.78 307L431.51 200.27L413.73 182.49L307 289.22L200.27 182.49L182.49 200.27L289.22 307L182.49 413.73L200.27 431.51Z" />
	</g>
</svg>