<?xml version="1.0" encoding="UTF-8"?>
<!DOCTYPE svg PUBLIC "-//W3C//DTD SVG 1.1//EN" "http://www.w3.org/Graphics/SVG/1.1/DTD/svg11.dtd">
<!-- Creator: CorelDRAW X6 -->
<svg xmlns="http://www.w3.org/2000/svg" xml:space="preserve" width="2.13782in" height="2.13782in" version="1.1" style="shape-rendering:geometricPrecision; text-rendering:geometricPrecision; image-rendering:optimizeQuality; fill-rule:evenodd; clip-rule:evenodd"
viewBox="0 0 2138 2138"
 xmlns:xlink="http://www.w3.org/1999/xlink">
 <defs>
  <style type="text/css">
   <![CDATA[
    .fil0 {fill:#FEFEFE}
   ]]>
  </style>
 </defs>
 <g id="Layer_x0020_1">
  <metadata id="CorelCorpID_0Corel-Layer"/>
  <g id="_962739056">
   <g>
    <g>
     <path class="fil0" d="M1825 313c-202,-202 -470,-313 -756,-313 -286,0 -554,111 -756,313 -202,202 -313,470 -313,756 0,286 111,554 313,756 202,202 470,313 756,313 286,0 554,-111 756,-313 202,-202 313,-470 313,-756 0,-286 -111,-554 -313,-756zm-86 1426c-179,179 -417,278 -670,278 -253,0 -491,-99 -670,-278 -369,-369 -369,-970 0,-1340 179,-179 417,-278 670,-278 253,0 491,99 670,278 369,369 369,970 0,1340z"/>
     <path class="fil0" d="M1540 598c-24,-24 -62,-24 -86,0l-385 385 -385 -385c-24,-24 -62,-24 -86,0 -24,24 -24,62 0,86l385 385 -385 385c-24,24 -24,62 0,86 12,12 27,18 43,18 15,0 31,-6 43,-18l385 -385 385 385c12,12 27,18 43,18 16,0 31,-6 43,-18 24,-24 24,-62 0,-86l-384 -385 385 -385c24,-24 24,-62 0,-86z"/>
    </g>
   </g>
   <g>
   </g>
   <g>
   </g>
   <g>
   </g>
   <g>
   </g>
   <g>
   </g>
   <g>
   </g>
   <g>
   </g>
   <g>
   </g>
   <g>
   </g>
   <g>
   </g>
   <g>
   </g>
   <g>
   </g>
   <g>
   </g>
   <g>
   </g>
   <g>
   </g>
  </g>
 </g>
</svg>
