<?xml version="1.0" encoding="UTF-8"?>
<!DOCTYPE svg PUBLIC "-//W3C//DTD SVG 1.1//EN" "http://www.w3.org/Graphics/SVG/1.1/DTD/svg11.dtd">
<!-- Creator: CorelDRAW X6 -->
<svg xmlns="http://www.w3.org/2000/svg" xml:space="preserve" width="1.10144in" height="1.10887in" version="1.1" style="shape-rendering:geometricPrecision; text-rendering:geometricPrecision; image-rendering:optimizeQuality; fill-rule:evenodd; clip-rule:evenodd"
viewBox="0 0 213 214"
 xmlns:xlink="http://www.w3.org/1999/xlink">
 <defs>
  <style type="text/css">
   <![CDATA[
    .fil0 {fill:#ffffff}
   ]]>
  </style>
 </defs>
 <g id="Layer_x0020_1">
  <metadata id="CorelCorpID_0Corel-Layer"/>
  <g id="_1012808176">
   <path class="fil0" d="M77 130c1,2 5,5 7,7 1,1 1,1 1,1 1,1 2,2 3,3 0,-1 4,-5 6,-7 1,-1 3,-3 4,-4l-11 -11 -8 8c-1,1 -2,2 -3,3z"/>
   <path class="fil0" d="M114 130l11 11c1,0 1,-1 1,-1l10 -9c-2,-2 -10,-10 -11,-12 -1,1 -2,2 -3,3 -1,1 -1,1 -1,1 -2,2 -6,5 -7,7z"/>
   <path class="fil0" d="M95 112c1,1 10,10 12,11 1,-2 10,-10 11,-12l-11 -11c-1,1 -9,10 -11,11z"/>
   <path class="fil0" d="M77 93c1,0 10,10 10,11 2,-1 4,-4 6,-5 2,-1 3,-3 4,-4 1,-1 1,-1 2,-1 -1,-1 -2,-2 -4,-4 0,-1 -1,-1 -1,-1l-5 -6c-2,2 -3,2 -4,4 -1,1 -1,1 -1,1l-6 5z"/>
   <path class="fil0" d="M115 93l11 11 2 -3c1,-1 2,-2 3,-3 1,-1 1,-1 1,-1 1,-1 3,-2 4,-4 -1,-1 -2,-2 -3,-3l-8 -8 -5 5c-2,2 -4,4 -5,6z"/>
   <path class="fil0" d="M133 112l4 4c1,1 6,6 6,7 1,-1 5,-6 6,-7l4 -4 -8 -10c-1,-1 -1,-1 -1,-2 -1,0 -2,2 -3,3 -1,1 -2,2 -3,3 -2,2 -4,4 -5,6z"/>
   <path class="fil0" d="M60 112l7 8c1,1 2,2 2,3 1,0 2,-1 3,-3l8 -9 -11 -11 -9 12z"/>
   <path class="fil0" d="M149 130c0,1 3,5 4,6 1,2 3,4 4,6 1,-1 2,-2 3,-3l8 -8c-1,-1 -1,-2 -2,-3l-6 -9c-1,1 -5,5 -6,7l-4 4z"/>
   <path class="fil0" d="M150 93c1,1 3,3 4,4 0,1 1,1 1,1 1,1 2,2 2,3 0,0 2,3 2,3 1,-1 8,-11 8,-11 0,-1 -3,-3 -3,-4 -1,-1 -1,-1 -1,-1l-2 -3c-1,-1 -2,-2 -2,-3 -1,1 -8,11 -8,11z"/>
   <path class="fil0" d="M46 130c1,1 2,2 3,3l8 8c2,-4 5,-7 8,-11l-7 -8c0,-1 -2,-3 -3,-3 -1,0 -1,2 -2,3 -1,1 -5,7 -6,9z"/>
   <path class="fil0" d="M45 92l6 8c0,1 2,2 2,3 1,-1 2,-2 3,-3l7 -8 -8 -11c-1,0 -2,2 -2,3 -1,1 -2,2 -2,3l-5 6z"/>
   <path class="fil0" d="M31 111c1,1 1,2 2,3 1,1 1,2 2,3 1,1 3,5 4,5 2,-2 7,-8 9,-11 0,0 -2,-2 -2,-3 -1,-1 -1,-2 -2,-3l-4 -6c-1,1 -4,5 -4,6l-4 6z"/>
   <path class="fil0" d="M63 150c1,1 2,1 3,2l8 6 7 -9c1,-1 1,-1 1,-2 -1,0 -7,-5 -8,-6 -1,-1 -2,-1 -3,-2 -1,1 -8,10 -8,11z"/>
   <path class="fil0" d="M165 111c1,1 1,2 2,3l7 8 8 -11c0,-1 -3,-5 -4,-6 -1,-1 -4,-5 -4,-6l-1 0c0,1 -6,9 -7,10 0,1 -1,1 -1,2z"/>
   <path class="fil0" d="M131 148l6 8c1,1 1,2 2,3 1,-1 2,-1 3,-2 1,-1 2,-1 3,-2l6 -4 -8 -11c-1,0 -2,1 -3,2 -1,1 -2,1 -3,2 -2,1 -4,3 -5,4z"/>
   <path class="fil0" d="M62 72c0,1 5,7 6,8 0,1 1,1 1,1 1,1 1,1 1,1 1,0 10,-8 11,-8 0,-1 -7,-10 -8,-11 -1,0 -9,7 -11,8z"/>
   <path class="fil0" d="M131 75c1,0 1,1 1,1l4 3c1,1 4,4 5,4 1,-2 3,-3 4,-5 1,-1 4,-4 4,-5 -1,-1 -6,-5 -8,-6 -1,0 -1,-1 -1,-1 -1,-1 -1,-1 -2,-1 0,1 0,1 -1,1l-7 9z"/>
   <path class="fil0" d="M186 103c1,-1 5,-9 6,-11 -2,-2 -8,-11 -9,-11 0,1 -2,5 -3,6 -3,6 -4,3 2,11 1,1 3,4 4,5z"/>
   <path class="fil0" d="M20 92c0,1 5,9 6,11l9 -11c0,0 0,0 0,0 0,0 0,0 0,-1 0,-1 0,-1 -1,-1 -1,-2 -4,-8 -5,-8 -1,0 -2,2 -2,3l-6 8z"/>
   <path class="fil0" d="M145 57c1,1 2,2 2,3l8 7c1,-1 5,-9 6,-10 -1,-2 -3,-3 -5,-5 -2,-2 -3,-4 -5,-5 -1,2 -5,9 -6,10z"/>
   <path class="fil0" d="M52 56l3 5c1,2 2,3 3,5 1,0 7,-6 8,-7 1,-1 2,-1 3,-2 -1,-1 -5,-9 -6,-10 -1,0 -2,1 -3,2l-8 7z"/>
   <path class="fil0" d="M163 74l5 5c1,1 4,4 5,5 0,-1 1,-2 1,-3l3 -5c0,-1 1,-2 1,-3 -1,-1 -9,-9 -10,-9l-5 10z"/>
   <path class="fil0" d="M35 73l5 10c1,0 2,-1 3,-2 1,-1 2,-2 2,-2 1,-1 4,-4 5,-5 0,-2 -5,-9 -5,-10l-10 10z"/>
   <path class="fil0" d="M29 140c1,-1 2,-4 3,-5 1,-2 2,-4 3,-6 -1,-2 -3,-4 -4,-6 -1,-1 -4,-5 -4,-6l-2 6c-3,8 -4,5 3,14 1,1 2,2 2,2z"/>
   <path class="fil0" d="M178 130l6 11 6 -7c1,-1 1,-2 2,-2 0,-1 -1,-2 -1,-3l-4 -10 -6 8c-1,1 -2,2 -2,3z"/>
   <path class="fil0" d="M46 158l4 -7c1,-1 1,-1 1,-3 -1,-1 -1,-2 -2,-2 -1,-1 -2,-2 -2,-2l-5 -5c-1,1 -4,6 -5,8 -1,1 -1,2 0,3 1,2 3,3 4,4 1,1 3,4 5,4z"/>
   <path class="fil0" d="M161 148l5 9c1,-1 4,-4 5,-5l5 -5 -4 -7c0,-1 -1,-2 -1,-2 -2,0 -6,6 -7,7 -1,1 -2,2 -3,3z"/>
   <path class="fil0" d="M143 165l3 4c1,2 2,3 3,5 1,0 2,-1 3,-2 1,-1 7,-6 8,-7 0,-1 -5,-8 -5,-9l-10 9z"/>
   <path class="fil0" d="M54 165l4 3c2,1 5,5 7,6l5 -9c-1,-1 -1,-1 -2,-2 -1,-1 -7,-6 -8,-7 -2,3 -4,6 -5,9z"/>
   <path class="fil0" d="M16 122l4 -8c0,-1 1,-2 1,-3l-5 -8c0,-1 -1,-2 -2,-3 0,1 -3,7 -3,9 -2,5 -2,3 1,9 1,1 2,5 3,5z"/>
   <path class="fil0" d="M196 122l1 0c0,-2 5,-9 5,-10l-4 -9c0,-1 -1,-2 -1,-3l-1 1c0,0 0,1 -1,1l-5 8c-1,1 1,3 2,6 1,2 3,5 3,6z"/>
   <path class="fil0" d="M171 57l10 9c0,-1 2,-8 2,-9 -1,-1 -1,-2 -2,-2 -1,-1 -2,-1 -3,-2 -2,-2 -3,-3 -5,-5 0,1 -2,8 -2,9z"/>
   <path class="fil0" d="M47 41l2 9c1,0 2,-1 3,-2l8 -7c0,-2 -2,-7 -2,-9l-4 3c-2,2 -4,4 -6,5z"/>
   <path class="fil0" d="M153 41c1,1 3,2 4,3l3 2c1,1 3,3 4,3 0,-3 1,-6 2,-9 -1,0 -1,-1 -1,-1 -1,-1 -1,-1 -1,-1 -1,-1 -1,-1 -1,-1l-2 -2c-1,-1 -1,-1 -1,-1 -1,-1 -1,-1 -3,-2l-2 9z"/>
   <path class="fil0" d="M29 57l2 9 5 -4c2,-2 3,-3 5,-5 0,-2 -2,-8 -2,-9 -2,1 -9,9 -10,9z"/>
   <path class="fil0" d="M169 164c0,3 1,6 1,9 1,0 6,-5 7,-6 1,-1 2,-1 3,-2 0,-3 -1,-7 -1,-11 -1,0 -4,4 -5,5 -1,1 -2,2 -2,2 -1,1 -2,2 -3,2z"/>
   <path class="fil0" d="M33 166c0,1 1,1 2,2 1,1 7,6 8,6 0,-2 1,-4 1,-6 0,-4 0,-3 -2,-5l-4 -4c-1,-1 -3,-3 -4,-4 0,1 0,4 -1,5 0,2 0,3 0,5z"/>
   <path class="fil0" d="M17 84c1,-1 8,-11 8,-11 0,-1 -2,-9 -2,-10 -1,1 -6,7 -7,8 -1,1 -1,1 -1,2 0,1 0,2 1,3l1 6z"/>
   <path class="fil0" d="M195 84c0,-2 2,-9 2,-11 0,0 -3,-4 -4,-5l-3 -4c-1,-1 -1,-1 -1,-1l-2 6c-1,4 -2,2 4,10 1,1 3,4 3,4z"/>
   <path class="fil0" d="M49 179c1,0 2,1 3,2l5 4c1,1 2,1 3,2 0,0 2,-8 2,-9 -1,0 -2,-1 -3,-2 0,0 -1,-1 -1,-1 -1,-1 -6,-5 -6,-5 0,2 -2,7 -2,9z"/>
   <path class="fil0" d="M151 179c0,2 1,6 2,8 1,0 10,-8 10,-8 0,-1 -2,-7 -2,-9 -1,0 -4,3 -5,4 -1,1 -5,4 -5,5z"/>
   <path class="fil0" d="M26 157c0,-2 1,-4 1,-7 0,-5 1,-3 -5,-9 -1,-1 -3,-3 -4,-4 0,2 0,5 -1,7 0,1 0,2 0,3 0,2 0,2 1,3l4 4c1,1 3,3 4,4z"/>
   <path class="fil0" d="M187 157c1,-1 8,-8 8,-8 0,-3 -1,-6 -1,-9 0,-1 0,-2 0,-3l-7 8c-2,2 -2,1 -1,5 0,2 1,5 1,7z"/>
   <path class="fil0" d="M7 103c1,-1 5,-9 5,-10 0,-1 -3,-10 -3,-12 -1,1 -4,9 -5,11 -1,1 -1,1 -1,3 0,1 1,2 1,3 1,2 1,4 2,6z"/>
   <path class="fil0" d="M200 93c0,1 5,9 5,10 1,-1 3,-7 3,-8 1,-1 0,-2 0,-3 0,-1 -4,-10 -5,-11 0,2 -3,11 -3,12z"/>
   <path class="fil0" d="M12 140c1,-14 3,-8 -3,-18 0,-1 -1,-2 -1,-3l-1 0c0,2 -1,7 -1,9 0,3 1,3 3,7 1,1 2,4 3,4z"/>
   <path class="fil0" d="M201 140c1,-1 6,-10 6,-10 0,-3 -2,-9 -2,-11 -1,1 -2,3 -3,4 -1,2 -2,3 -3,4 -1,2 0,3 0,6 0,2 1,5 1,6z"/>
   <path class="fil0" d="M184 50l-1 -6c0,-5 0,-2 -6,-7l-4 -3c0,1 0,8 1,9 0,0 8,7 9,8z"/>
   <path class="fil0" d="M30 41c0,3 -1,6 -1,9l4 -3c1,-1 1,-1 2,-2 3,-2 4,-3 4,-6 0,-2 0,-4 0,-6l-5 4c-1,0 -1,0 -1,1 -1,1 -2,2 -4,3z"/>
   <path class="fil0" d="M44 187c0,-2 0,-4 -1,-6 0,-1 -1,-1 -1,-2 -1,-1 -1,-1 -2,-2 -2,-1 -5,-5 -7,-6 0,2 1,4 1,6 1,4 0,3 6,7 1,1 3,2 4,3z"/>
   <path class="fil0" d="M169 187c1,0 7,-5 8,-6 2,-2 2,-1 2,-4 0,-2 1,-4 1,-6l-7 6c-1,1 -3,2 -3,4l-1 6z"/>
   <path class="fil0" d="M186 173c1,-1 7,-8 8,-9 1,-1 1,0 1,-3 0,-2 1,-5 1,-7 -1,0 -1,1 -2,2l-7 7c-1,1 -1,8 -1,9z"/>
   <path class="fil0" d="M26 173c0,-2 0,-4 0,-6 0,-2 0,-2 -1,-3l-8 -9c0,3 0,4 0,7 0,2 0,2 3,5 1,1 1,1 1,2 0,0 0,0 1,1 0,1 0,1 1,1l3 4z"/>
   <path class="fil0" d="M198 65c0,-2 0,-4 0,-6 -1,-5 0,-2 -5,-7 -1,-1 -2,-3 -3,-3 1,2 0,7 1,9 0,1 7,8 8,8z"/>
   <path class="fil0" d="M156 27c1,1 2,1 3,2 1,1 2,1 3,2l5 4 0 -7 -9 -6c-1,-1 0,-1 -1,-1l0 6z"/>
   <path class="fil0" d="M47 28l0 7 10 -8c0,-1 0,-5 0,-6 -1,0 -4,3 -5,3l-5 3z"/>
   <path class="fil0" d="M15 65c1,0 1,-1 1,-2l5 -5c2,-2 2,-1 2,-4 0,-2 0,-4 0,-6 -2,1 -5,5 -6,6 -2,2 -2,1 -2,4 0,2 0,4 0,6z"/>
   <path class="fil0" d="M61 199l0 -5c-3,-1 -9,-6 -11,-8 0,1 1,7 2,7l6 3c2,1 3,2 4,2z"/>
   <path class="fil0" d="M151 199l9 -6c1,-1 1,-1 1,-2 0,-1 1,-5 1,-5 -1,0 -3,2 -4,2l-5 4c-4,2 -2,1 -2,7z"/>
   <path class="fil0" d="M12 157l0 -9c0,-1 -2,-5 -3,-6 -1,-1 -3,-5 -4,-6 0,7 2,15 5,20l1 1z"/>
   <path class="fil0" d="M201 157c2,-1 4,-7 5,-9 1,-4 2,-7 2,-12 -1,1 -4,7 -5,9 -1,2 -1,2 -1,6 0,2 0,5 0,7z"/>
   <path class="fil0" d="M0 109c0,8 2,10 3,13 1,-1 1,-1 1,-2 0,-2 1,-7 0,-9 0,-2 -1,-4 -1,-5 0,-2 -1,-4 -2,-5 0,3 -1,5 -1,8z"/>
   <path class="fil0" d="M209 122c1,-1 1,-3 2,-4 1,-2 1,-6 1,-8l-1 -9 -3 10c-1,2 1,9 1,12z"/>
   <path class="fil0" d="M32 34c3,-2 5,-4 8,-6 2,-1 4,-6 5,-8l-4 3c-5,4 -4,1 -7,7 -1,1 -2,3 -2,4z"/>
   <path class="fil0" d="M181 34c0,-1 -4,-8 -5,-9l-8 -6 2 4c1,2 1,3 3,4l8 6z"/>
   <path class="fil0" d="M163 22c0,-1 -2,-5 -3,-6 -1,0 -1,-1 -2,-1 -1,-1 -6,-4 -7,-4 0,1 2,3 2,4 1,2 1,2 3,3 1,1 6,4 8,4z"/>
   <path class="fil0" d="M49 22c2,-1 8,-5 9,-6l4 -6 -8 5c-2,1 -2,1 -3,3 -1,1 -2,3 -2,4z"/>
   <path class="fil0" d="M163 197c4,-1 13,-8 14,-12 -1,1 -2,2 -4,3 -5,4 -8,5 -10,10z"/>
   <path class="fil0" d="M5 82l2 -4c2,-4 2,-5 3,-9 0,-2 0,-3 0,-6 -1,1 -1,3 -2,4 -2,5 -3,9 -3,15z"/>
   <path class="fil0" d="M208 82c0,-6 -1,-12 -4,-17l-1 -2c0,1 0,4 0,5 1,5 -1,2 2,7l2 4c0,1 0,1 1,2z"/>
   <path class="fil0" d="M36 185c0,1 3,5 4,6 1,1 1,1 2,1 3,2 5,4 8,5 -1,-4 -9,-8 -12,-11 -1,0 -1,-1 -2,-1z"/>
   <path class="fil0" d="M192 172c-1,0 -1,1 -2,2 -1,1 -1,1 -2,2l-5 5c-1,1 -1,1 -2,2 -1,1 -2,3 -3,4 1,-1 3,-1 4,-2 1,-1 1,-1 2,-1 3,-2 6,-7 7,-10z"/>
   <path class="fil0" d="M34 186c-1,-1 -2,-3 -3,-4l-10 -10c1,4 8,13 13,14z"/>
   <path class="fil0" d="M153 11c0,-1 -1,-2 -2,-2 -4,-4 -1,-2 -7,-5 -3,-1 -10,-3 -13,-4 1,1 10,5 11,5 2,1 4,2 5,3 1,1 2,1 3,2 1,0 2,1 3,1z"/>
   <path class="fil0" d="M81 0c-3,0 -16,4 -17,6 -1,1 -3,3 -4,4 2,-1 3,-2 5,-3 6,-4 8,-4 15,-7 0,0 0,0 1,0 1,0 0,0 1,0z"/>
   <path class="fil0" d="M195 49c0,-2 -4,-8 -5,-9 -1,-2 -5,-6 -6,-7 0,2 2,3 2,5 1,1 2,4 2,5l6 7z"/>
   <path class="fil0" d="M18 49c1,-1 7,-8 8,-9l4 -7c-2,1 -5,5 -6,7 -1,2 -4,7 -5,9z"/>
   <path class="fil0" d="M4 140c0,-10 0,-9 -3,-18 0,0 0,0 0,-1 0,-1 0,0 0,-1 0,6 0,12 2,17 0,1 0,1 1,2z"/>
   <path class="fil0" d="M209 140c1,-1 2,-8 2,-9 1,-3 1,-7 1,-11 -1,1 -2,7 -3,9 -1,3 -1,7 -1,11z"/>
   <path class="fil0" d="M145 207c2,-1 10,-4 11,-6 0,0 1,-1 1,-2 0,-1 1,-1 1,-2 -1,1 -10,5 -10,6l-2 3z"/>
   <path class="fil0" d="M55 198c0,1 2,3 2,4l10 5c0,-1 -2,-3 -3,-4 0,0 -1,0 -1,0 -2,-1 -7,-4 -9,-5z"/>
   <path class="fil0" d="M41 21c3,-1 5,-2 8,-4l6 -6c-2,0 -6,3 -8,4 -2,1 -5,4 -6,6z"/>
   <path class="fil0" d="M158 11c1,1 9,8 10,8 1,1 3,1 5,2 -1,-1 -5,-5 -6,-6 -2,-1 -6,-4 -8,-4z"/>
   <path class="fil0" d="M212 100c0,-2 0,-3 0,-5 0,-1 0,-1 0,-2 0,-1 0,-2 0,-2 0,-2 0,-3 0,-5l-1 -4c0,0 0,0 0,-1 0,2 0,3 0,5 0,2 0,3 0,5 0,2 0,3 1,5 0,1 0,4 1,4z"/>
   <path class="fil0" d="M61 207c-1,-2 -7,-5 -10,-6l-4 -2c0,0 2,2 3,2 3,2 7,5 11,5z"/>
   <path class="fil0" d="M20 170c-1,-2 -3,-5 -4,-6 -1,-1 -2,-2 -2,-3 -1,-1 -2,-2 -2,-3 0,1 1,2 1,4 1,1 1,2 2,3 1,2 3,4 6,5z"/>
   <path class="fil0" d="M147 209c-1,0 -9,3 -10,3 -1,1 -2,1 -3,2l0 1c4,0 8,-2 11,-4 1,0 2,-2 3,-2z"/>
   <path class="fil0" d="M151 207c4,0 8,-2 11,-5 1,-1 2,-2 3,-3l-11 5c-1,0 -3,2 -3,2z"/>
   <path class="fil0" d="M178 189c-1,0 -5,4 -6,5 -2,2 -3,2 -5,5 2,0 5,-3 6,-4 1,-1 4,-5 4,-6z"/>
   <path class="fil0" d="M193 170c4,-1 9,-10 9,-12l-7 9c-1,1 -1,2 -2,4z"/>
   <path class="fil0" d="M80 214c0,-1 -2,-2 -3,-2l-11 -4c2,3 9,6 14,6z"/>
   <path class="fil0" d="M45 199c-3,-4 -5,-5 -8,-8l-3 -3c0,2 3,5 5,6 2,2 4,4 7,4z"/>
   <path class="fil0" d="M0 91l1 9c0,-2 1,-8 1,-9l-1 -10c0,1 0,3 -1,5 0,2 0,3 0,5z"/>
   <polygon class="fil0" points="195,49 195,49 195,49 "/>
   <polygon class="fil0" points="150,11 150,10 150,11 "/>
   <polygon class="fil0" points="36,185 36,185 36,185 "/>
   <polygon class="fil0" points="158,11 158,11 158,11 "/>
   <polygon class="fil0" points="178,189 178,189 178,188 "/>
   <polygon class="fil0" points="192,172 192,172 192,172 "/>
   <polygon class="fil0" points="55,198 55,198 55,198 "/>
   <polygon class="fil0" points="163,22 163,22 163,22 "/>
   <polygon class="fil0" points="81,0 81,0 "/>
   <polygon class="fil0" points="147,209 147,208 "/>
  </g>
 </g>
</svg>
