<?xml version="1.0" encoding="UTF-8"?>
<!DOCTYPE svg PUBLIC "-//W3C//DTD SVG 1.1//EN" "http://www.w3.org/Graphics/SVG/1.1/DTD/svg11.dtd">
<!-- Creator: CorelDRAW X6 -->
<svg xmlns="http://www.w3.org/2000/svg" xml:space="preserve" width="1.1015in" height="1.10116in" version="1.1" style="shape-rendering:geometricPrecision; text-rendering:geometricPrecision; image-rendering:optimizeQuality; fill-rule:evenodd; clip-rule:evenodd"
viewBox="0 0 213 213"
 xmlns:xlink="http://www.w3.org/1999/xlink">
 <defs>
  <style type="text/css">
   <![CDATA[
    .fil0 {fill:#ffffff}
   ]]>
  </style>
 </defs>
 <g id="Layer_x0020_1">
  <metadata id="CorelCorpID_0Corel-Layer"/>
  <path class="fil0" d="M6 163c1,0 1,0 1,0l54 0c1,0 1,0 1,0l0 23c0,1 0,3 -1,3l-55 0c-1,0 -1,-1 -1,-1 0,-1 0,-1 0,-2l0 -23zm16 -16l24 0c1,0 1,-1 2,-1 1,-1 1,-3 0,-4 0,0 -1,-1 -2,-1l-24 0c-4,0 -4,6 0,6zm0 32l24 0c3,0 4,-4 1,-6 -1,0 -2,-1 -3,-1 -3,0 -21,0 -23,0 -1,0 -1,1 -2,2 0,2 1,4 2,4zm187 34c1,0 2,-1 3,-2 0,0 0,-1 0,-1 0,-1 0,-4 0,-5 0,-3 0,-27 0,-28l0 0c0,0 0,0 0,0 -1,-3 -6,-2 -6,1l0 34c0,0 1,1 1,2 0,0 1,1 2,1zm-204 -82c0,0 1,0 1,0l55 0c0,0 0,0 1,0l0 23c0,1 0,3 -1,3l-55 0c-1,0 -1,-1 -1,-1 0,-1 0,-1 0,-2l0 -23zm94 31c0,-2 2,-6 3,-7l0 -1c2,-2 3,-3 5,-5 2,-1 4,-2 6,-2l4 -1c1,0 2,0 2,0 3,0 51,0 58,0 0,3 -1,8 -2,11 0,0 0,1 -1,1 -1,1 -1,2 -2,2 -3,2 -4,2 -7,3 -1,0 -1,0 -1,0l-67 0 0 -1zm85 -51l21 0 0 14c0,0 0,1 -1,1l-20 0c0,0 -1,0 -1,-1l0 -14zm-179 0l158 0c1,0 0,0 1,1l1 2c2,3 4,6 6,9 0,0 0,0 0,0l1 1c1,1 1,1 1,1l-164 0c-2,0 -5,0 -5,-1l0 -14zm145 -17l9 0 1 8c0,0 0,1 0,1 1,3 3,2 -10,2l0 -11zm-26 0l20 0 0 11 -20 0c0,0 -1,0 -1,-1l0 -11zm61 -17c0,0 0,-1 1,-1l8 0c0,0 1,0 1,1l0 9c0,1 -1,2 -2,2l-8 0 0 -11zm-20 5c0,-1 0,-2 0,-3 0,-1 0,-1 0,-2 0,-2 0,-6 1,-7 0,-1 0,-2 1,-3 1,-3 1,-5 2,-8 0,-1 1,-2 1,-2l2 -4c1,-2 6,-8 8,-9 0,0 0,0 0,1l0 76c0,1 -2,0 -2,-1 -1,-1 -1,-1 -2,-2 0,0 -1,-1 -1,-1 0,0 0,-1 -1,-1 -2,-3 -5,-8 -6,-11l-1 -4c0,-1 0,-1 0,-1 -1,-3 -2,-11 -2,-13l0 -5zm-151 0c0,0 0,0 1,0l34 0c1,0 1,1 0,2 0,2 0,5 -1,7 0,1 0,1 0,2 0,1 0,1 -1,2 0,1 -2,4 -3,5l-4 4c-2,1 -4,1 -6,2 -7,1 -14,-1 -17,-8 -1,-2 -1,-4 -2,-6 0,-3 -1,-6 -1,-9zm60 -4c0,-1 0,-1 0,-1 15,0 30,0 45,0l39 0c1,0 1,0 1,2 0,4 0,6 0,10l-83 0c-1,0 -2,-1 -2,-3l0 -7zm-60 -24c2,0 4,-2 9,1l1 1c2,1 2,3 3,5 0,0 0,1 0,1 0,1 0,1 -1,1 -3,0 -6,0 -8,-2 -2,-1 -3,-2 -4,-4 -1,-1 -1,-2 -1,-4zm21 7c1,-1 2,-3 3,-4l1 -1c3,-2 7,-3 10,-2 0,4 -3,7 -6,8 -1,1 -3,1 -5,1 -1,0 -3,0 -3,-1l1 -2zm-8 -29c0,-2 1,-5 2,-7 1,-1 1,-1 2,-2 1,1 2,2 3,3 1,3 1,5 1,8 0,1 0,2 -1,2 -1,1 -2,3 -3,3l-2 -2c0,0 0,0 0,0 0,0 0,0 0,0 0,0 -2,-3 -2,-7zm17 16c-3,0 -6,1 -8,3 0,0 -1,0 -1,1 -1,1 -1,-1 -1,-5 0,0 0,-1 1,-1l4 -5c0,0 0,0 0,-1 1,-3 2,-6 2,-10 0,-1 0,-2 0,-3l-2 -4c0,0 0,-1 -1,-1 -1,-2 -5,-6 -7,-6 -2,0 -3,1 -5,2 -1,1 -2,2 -3,3l-1 2c-2,3 -2,7 -1,11 0,3 2,7 4,9 1,1 2,2 2,3 0,4 1,6 -1,4 -5,-3 -11,-5 -16,-2 -4,1 -3,3 -3,7 0,3 2,6 3,8 2,2 4,4 7,5l1 1c0,0 1,0 2,1 1,0 2,0 4,1 1,0 4,-1 4,0 0,5 1,5 -2,5 -4,0 -14,0 -17,0 -1,0 -2,1 -2,2 0,2 0,9 0,11 0,3 1,6 3,9 0,1 0,1 1,2 0,0 0,0 0,1 2,3 4,4 2,4 -2,0 -10,0 -12,0 -1,0 -2,1 -2,3l0 103c0,3 6,4 6,1 0,-2 0,-8 0,-10 0,-2 0,-5 1,-5l55 0c1,0 1,1 1,2 0,2 0,12 0,13 1,3 6,3 6,0 0,-2 0,-35 0,-38 0,-13 0,-27 0,-40 0,-1 0,-2 1,-2l109 0c0,0 0,0 1,0 0,2 0,4 0,5 0,1 0,1 0,2 0,1 0,1 -2,1 -17,0 -35,0 -53,0 -4,0 -7,1 -11,1l-3 1c-2,1 -4,2 -6,2 -4,2 -7,5 -9,9 -2,3 -3,7 -3,10 0,2 0,4 2,5 1,0 30,0 37,0 2,0 5,0 5,1 0,2 0,4 0,5 -3,0 -6,0 -9,0 -3,0 -6,0 -6,3 0,1 1,2 2,3 1,1 11,0 13,0 0,2 0,22 0,26 0,1 -1,1 -2,1 -7,0 -37,0 -38,0 -1,0 -2,1 -2,2 0,1 0,3 1,3 1,1 2,1 4,1l36 0c2,0 4,0 6,0 2,0 27,0 29,0 2,0 12,0 13,0 2,-1 2,-3 1,-5 -1,-1 -1,-1 -2,-1 -2,0 -37,0 -40,0 0,0 0,0 0,-1l0 -37c0,-1 1,-1 2,-1l19 0c2,0 2,0 4,0 3,0 5,-1 7,-2 1,-1 3,-2 4,-3 1,-1 3,-3 4,-5l1 -1c1,-2 1,-5 2,-7 0,-1 0,-3 0,-4 0,-1 0,-3 0,-4l0 -7c0,-1 -1,-5 1,-5 3,0 19,0 21,0 0,6 0,12 0,17 0,2 0,12 0,13 1,2 4,2 5,1l1 -1c0,-1 0,0 0,0l0 -53c0,-1 -1,-2 -2,-2 -1,-1 -2,-1 -3,-1l-20 0c-1,0 -3,0 -3,-1l0 -11 8 0c1,0 3,-1 4,-1 4,-2 4,-5 4,-9l0 -72c0,-4 -1,-7 -4,-9l-3 -1 -119 0 -1 0c-3,1 -6,4 -6,7l0 12c0,2 2,3 3,3 1,0 3,-1 3,-3 0,-5 -1,-14 2,-14l117 0c0,0 1,1 1,1 0,1 0,1 0,2 0,20 0,40 0,60 -2,0 -6,0 -8,0 -1,0 -1,0 -1,0l0 -29c0,-2 0,-5 -1,-6 -2,-1 -3,-1 -5,0 -6,3 -10,8 -14,14l-2 4c0,0 0,0 0,1l-1 4c0,1 0,1 0,1l-2 11c0,0 0,0 -1,0l-84 0c-1,0 -1,-1 -1,-2 0,-1 0,-2 0,-2 0,-4 0,-29 0,-30 -1,-3 -6,-2 -6,1l0 49c0,1 0,1 0,2 0,1 0,1 1,1 1,3 4,5 7,5l42 0 0 11c0,1 -3,1 -4,1l-67 0c0,-1 0,0 0,-1l2 -3c2,-3 3,-6 4,-9l1 -6c0,-1 0,-3 0,-4 0,-2 1,-5 -1,-6 0,0 0,0 0,0 0,0 -1,-1 -2,-1l-12 0c-6,0 -5,1 -5,-5 0,0 0,-1 1,-1 2,0 3,0 5,0 1,0 3,-1 4,-1 3,-1 5,-3 7,-5 2,-3 4,-7 4,-11 0,-2 -1,-3 -3,-4l-2 -1c-2,-1 -4,0 -6,0z"/>
 </g>
</svg>
