<?xml version="1.0" encoding="UTF-8"?>
<!DOCTYPE svg PUBLIC "-//W3C//DTD SVG 1.1//EN" "http://www.w3.org/Graphics/SVG/1.1/DTD/svg11.dtd">
<!-- Creator: CorelDRAW X6 -->
<svg xmlns="http://www.w3.org/2000/svg" xml:space="preserve" width="2.40175in" height="1.27959in" version="1.1" style="shape-rendering:geometricPrecision; text-rendering:geometricPrecision; image-rendering:optimizeQuality; fill-rule:evenodd; clip-rule:evenodd"
viewBox="0 0 4989 2658"
 xmlns:xlink="http://www.w3.org/1999/xlink">
 <defs>
  <style type="text/css">
   <![CDATA[
    .fil0 {fill:#ffffff}
   ]]>
  </style>
 </defs>
 <g id="Layer_x0020_1">
  <metadata id="CorelCorpID_0Corel-Layer"/>
  <g id="_1012796976">
   <g>
    <path class="fil0" d="M1757 1350c43,-63 252,-593 286,-674l284 -676 -570 0 0 1350z"/>
    <polygon class="fil0" points="3308,1350 3308,0 2737,0 "/>
    <path class="fil0" d="M2287 1100l270 0c5,59 95,221 100,280l240 0c-16,-33 -27,-69 -43,-107 -16,-37 -32,-72 -45,-105 -31,-76 -59,-145 -92,-218l-136 -324c-14,-32 -41,-84 -43,-117 -1,2 -3,3 -4,6l-246 584z"/>
   </g>
   <g>
    <path class="fil0" d="M4370 930l-85 0 -23 33c-28,45 -37,60 -59,110 -52,122 -67,245 -67,384 0,21 2,34 2,55 0,11 1,18 2,27 1,9 0,18 1,27l8 104c1,16 4,34 5,51 2,15 4,35 6,50 5,34 9,66 14,98l17 96c5,33 12,63 18,94 18,93 42,183 65,273l25 90 56 0 24 -89c44,-172 71,-285 101,-464 12,-75 17,-128 26,-199 2,-18 2,-34 5,-52 2,-15 1,-36 4,-53 1,-10 0,-17 1,-27 0,-9 2,-15 2,-26 0,-36 3,-70 2,-111l-9 -104c-13,-107 -44,-209 -96,-299 -19,-34 -28,-42 -46,-69z"/>
    <path class="fil0" d="M4680 1456l-11 148c-4,35 -16,98 -25,134 -19,82 -51,196 -83,275 -24,61 -47,123 -75,183l-112 228c20,0 18,3 30,-14 6,-9 13,-17 19,-27l100 -150c4,-5 6,-8 9,-14l68 -113 116 -226c3,-6 4,-9 7,-16l41 -97c5,-12 8,-21 13,-33 31,-80 68,-216 68,-297 0,-105 -10,-170 -53,-257 -17,-35 -32,-53 -55,-82 -11,-14 -41,-44 -55,-55 -6,-4 -10,-8 -15,-13 -18,-15 -46,-32 -67,-45l-36 -19c-56,-23 -18,-14 -84,-25 -15,-2 -35,-6 -51,-6l53 42c18,15 33,31 49,48 59,61 112,172 128,256 11,57 19,116 19,175z"/>
    <path class="fil0" d="M3810 1399c0,95 9,143 33,230 12,43 29,94 46,136 11,28 28,71 41,97 5,10 9,21 14,32l30 62c5,10 10,20 15,31 11,20 20,39 31,59l137 228c6,10 12,18 18,28l85 121c5,3 13,2 21,2 0,-5 -24,-48 -27,-53 -47,-81 -143,-301 -170,-385l-48 -150c-21,-74 -39,-153 -49,-229 -2,-12 -3,-23 -4,-35 -2,-25 -5,-47 -5,-76 0,-13 -2,-23 -2,-39 0,-109 22,-222 69,-317 26,-51 40,-68 72,-108 15,-18 37,-40 55,-55 9,-7 17,-14 26,-21 5,-4 9,-7 14,-10 4,-3 11,-7 14,-11 -15,0 -35,3 -49,6l-47 8c-26,8 -84,40 -108,56 -24,16 -56,41 -76,61 -42,43 -77,93 -99,149 -19,48 -37,116 -37,184z"/>
    <path class="fil0" d="M3667 1413c0,102 26,202 62,292 5,13 9,23 14,35 19,46 42,90 65,133l36 63c50,83 82,128 140,205l135 161c4,4 8,8 12,13 5,5 7,7 12,13l75 73c9,7 16,19 27,22l-79 -89c-57,-67 -112,-138 -161,-211 -32,-49 -76,-115 -103,-167l-46 -88c-38,-77 -50,-112 -80,-190 -3,-9 -5,-16 -8,-26 -55,-169 -65,-367 41,-517 10,-14 40,-52 54,-62 11,-8 24,-24 45,-39l40 -29c-34,8 -101,57 -132,81 -37,29 -75,77 -98,119 -10,19 -20,38 -27,60 -16,48 -25,94 -25,148z"/>
    <path class="fil0" d="M4411 2424c9,-2 43,-37 52,-46 14,-14 61,-62 72,-76l47 -52c2,-3 4,-4 6,-6 3,-3 2,-4 5,-7 28,-32 51,-64 77,-95 41,-50 106,-149 140,-205 92,-153 178,-344 178,-522 0,-100 -29,-183 -85,-259 -11,-15 -37,-44 -52,-56l-60 -47 -54 -32c-10,-5 -20,-11 -31,-13 3,4 15,10 20,14 17,12 62,47 73,61 6,8 9,11 16,18l30 38c123,173 90,405 16,591 -24,60 -63,152 -96,207 -5,8 -9,15 -13,22 -67,125 -196,302 -286,404l-57 63z"/>
    <path class="fil0" d="M4264 2658l127 0c6,-4 13,-4 21,-14 7,-9 7,-12 7,-28 0,-19 4,-88 -4,-102 -4,-8 -11,-13 -19,-16 -9,-4 -128,-4 -137,0 -24,9 -23,30 -23,47 0,23 0,47 0,71 0,18 3,28 17,36l11 5c0,0 1,0 1,1z"/>
   </g>
   <path class="fil0" d="M322 1354c9,-4 27,-7 39,-10 14,-3 24,-6 38,-9l152 -36c73,-17 157,-38 228,-53l153 -35 0 1221c0,6 -3,5 -9,4l-102 -12c-40,-5 -76,-9 -116,-14 -74,-10 -157,-17 -230,-27 -127,-18 -272,-33 -403,-49 -19,-2 -38,-6 -57,-6l7 3c3,1 4,1 7,2l101 36c52,17 119,45 172,62l400 144c21,7 38,14 58,21 19,6 37,14 57,20l114 41 126 -38c10,-3 21,-7 32,-10 12,-3 21,-7 32,-9 22,-6 41,-13 62,-19l64 -19c11,-3 21,-6 32,-10l126 -38c7,-2 24,-8 31,-8l0 -1416c-24,-6 -98,-32 -127,-40 -47,-14 -370,-120 -377,-120 -7,0 -161,59 -176,64 -20,7 -37,15 -58,22l-175 65c-10,4 -20,7 -29,11 -10,4 -19,7 -29,11l-292 108c-19,7 -39,14 -58,21 -17,6 -102,36 -115,44l0 1048 82 -35c42,-19 101,-42 141,-61l100 -44 0 -829z"/>
  </g>
 </g>
</svg>
