<?xml version="1.0" encoding="UTF-8"?>
<!DOCTYPE svg PUBLIC "-//W3C//DTD SVG 1.1//EN" "http://www.w3.org/Graphics/SVG/1.1/DTD/svg11.dtd">
<!-- Creator: CorelDRAW X6 -->
<svg xmlns="http://www.w3.org/2000/svg" xml:space="preserve" width="0.668587in" height="0.638346in" version="1.1" style="shape-rendering:geometricPrecision; text-rendering:geometricPrecision; image-rendering:optimizeQuality; fill-rule:evenodd; clip-rule:evenodd"
viewBox="0 0 90 86"
 xmlns:xlink="http://www.w3.org/1999/xlink">
 <defs>
  <style type="text/css">
   <![CDATA[
    .str0 {stroke:#ab5410;stroke-width:2.80451}
    .fil1 {fill:none}
    .fil3 {fill:#ab5410}
    .fil0 {fill:#ab5410}
    .fil2 {fill:#ab5410;fill-rule:nonzero}
   ]]>
  </style>
 </defs>
 <g id="Layer_x0020_1">
  <metadata id="CorelCorpID_0Corel-Layer"/>
  <g id="_900785184">
   <path class="fil0" d="M63 28c-1,0 -1,-1 -2,-1 -1,3 1,5 2,7l-2 0c0,1 0,2 1,3 1,1 2,1 3,2 -2,2 -6,1 -8,0 1,2 5,4 8,5 4,1 8,1 11,-1 5,-2 8,-6 10,-11 1,-1 0,-1 2,-2 1,0 1,-1 2,-1l-3 0c0,0 0,0 0,0l1 -1c1,-1 1,0 1,-1l-4 0c-3,-5 -8,-4 -10,-2 -1,1 -1,2 -2,3 -2,-1 -5,-2 -6,-4 -3,-3 -2,-4 -4,-6 -3,2 -2,4 -1,8z"/>
   <path class="fil1 str0" d="M14 84l-1 -6c0,0 -4,3 -6,-2l-1 1c0,0 -1,0 -2,-1 -1,-1 -2,-3 -2,-3 0,0 -1,-1 0,-1l1 -1 -1 -2c0,0 0,0 0,-1 0,-1 0,-2 3,-4l7 -4 1 1c0,0 7,-4 9,-11 1,-1 0,-4 2,-4 1,-1 2,0 3,2 1,2 8,15 11,20l1 2c0,0 1,1 0,2 0,1 -2,1 -2,1 0,0 -2,-2 -5,-1 -3,0 -8,0 -13,2l1 1 -3 2 1 7 -4 1z"/>
   <path class="fil2" d="M47 40l-10 12c-1,-1 -2,-1 -3,-2l10 -12 3 2z"/>
   <path class="fil2" d="M53 60l-15 0c0,-1 0,-2 0,-3l15 0 0 3z"/>
   <path class="fil3" d="M42 27l0 -13 -4 0 0 -5 4 0c0,-4 0,-6 3,-8 1,0 2,-1 3,-1l5 0 0 5 -4 0c-1,0 -1,3 -1,4l6 0 0 5 -6 0 0 13 -5 0z"/>
   <line class="fil1 str0" x1="12" y1="62" x2="19" y2= "73" />
   <path class="fil3" d="M70 54c-1,0 -2,1 -2,3 0,1 1,2 3,2 3,-1 2,-5 -1,-4zm-2 22l5 0 0 -16 -4 0 0 0 0 16zm7 0l5 0 0 -9c0,-2 1,-2 2,-2 2,0 2,1 2,2l0 9 5 0 0 -8c0,-5 -1,-9 -6,-8 -1,0 -2,0 -2,1 0,0 0,1 0,1l0 -2 -5 0 0 16z"/>
  </g>
 </g>
</svg>
