<?xml version="1.0" encoding="UTF-8"?>
<!DOCTYPE svg PUBLIC "-//W3C//DTD SVG 1.1//EN" "http://www.w3.org/Graphics/SVG/1.1/DTD/svg11.dtd">
<!-- Creator: CorelDRAW X6 -->
<svg xmlns="http://www.w3.org/2000/svg" xml:space="preserve" width="0.740146in" height="0.589445in" version="1.1" style="shape-rendering:geometricPrecision; text-rendering:geometricPrecision; image-rendering:optimizeQuality; fill-rule:evenodd; clip-rule:evenodd"
viewBox="0 0 110 87"
 xmlns:xlink="http://www.w3.org/1999/xlink">
 <defs>
  <style type="text/css">
   <![CDATA[
    .str1 {stroke:#ab5410;stroke-width:3.09016}
    .str0 {stroke:#ab5410;stroke-width:4.12021}
    .fil0 {fill:none}
    .fil1 {fill:#ab5410}
    .fil3 {fill:#4D4D4D}
    .fil2 {fill:#ab5410;fill-rule:nonzero}
   ]]>
  </style>
 </defs>
 <g id="Layer_x0020_1">
  <metadata id="CorelCorpID_0Corel-Layer"/>
  <g id="_702686512">
   <path class="fil0 str0" d="M69 66l-31 0m-22 0l-14 0 0 -19 0 -35 84 0 0 14"/>
   <rect class="fil0 str1" x="73" y="30" width="30" height="50"/>
   <rect class="fil1" x="66" y="84" width="44" height="4" rx="2" ry="2"/>
   <g>
    <path class="fil2" d="M42 31l-32 0 0 -4 32 0 2 2 -2 2zm0 -4l2 0 0 2 -2 -2zm-2 9l0 -7 4 0 0 7 -2 2 -2 -2zm4 0l0 2 -2 0 2 -2zm-34 -2l32 0 0 4 -32 0 -2 -2 2 -2zm0 4l-2 0 0 -2 2 2zm2 -9l0 7 -4 0 0 -7 2 -2 2 2zm-4 0l0 -2 2 0 -2 2z"/>
   </g>
   <g>
    <path class="fil2" d="M24 37l0 39 -4 0 0 -39 2 -2 2 2zm-4 0l0 -2 2 0 -2 2zm9 2l-7 0 0 -4 7 0 2 2 -2 2zm0 -4l2 0 0 2 -2 -2zm-2 41l0 -39 4 0 0 39 -2 2 -2 -2zm4 0l0 2 -2 0 2 -2zm-9 -2l7 0 0 4 -7 0 -2 -2 2 -2zm0 4l-2 0 0 -2 2 2z"/>
   </g>
   <rect class="fil3 str0" x="16" y="74" width="21" height="4"/>
   <g>
    <path class="fil2" d="M27 2l-8 0 0 -2 8 0 1 1 -1 1zm0 -2l1 0 0 1 -1 -1zm0 8l-1 -6 2 0 1 6 -1 1 -1 -1zm2 0l0 1 -2 0 1 -1zm-12 -1l10 0 0 2 -10 0 -1 -1 1 -1zm0 2l-2 0 0 -1 1 1zm2 -7l-1 6 -2 0 1 -6 1 -1 1 1zm-2 0l0 -1 1 0 -1 1z"/>
   </g>
   <g>
    <polygon class="fil2" points="24,7 25,12 23,12 22,7 "/>
   </g>
   <g>
    <path class="fil2" d="M59 2l-1 -1 1 -1 8 0 0 2 -8 0zm-1 -1l0 -1 1 0 -1 1zm1 7l-1 1 -1 -1 1 -6 2 0 -1 6zm-1 1l-2 0 0 -1 1 1zm10 -2l1 1 -1 1 -10 0 0 -2 10 0zm1 1l0 1 -2 0 1 -1zm-4 -6l1 -1 1 1 1 6 -2 0 -1 -6zm1 -1l1 0 0 1 -1 -1z"/>
   </g>
   <g>
    <polygon class="fil2" points="62,7 64,7 63,12 61,12 "/>
   </g>
  </g>
 </g>
</svg>
