<?xml version="1.0" encoding="UTF-8"?>
<!DOCTYPE svg PUBLIC "-//W3C//DTD SVG 1.1//EN" "http://www.w3.org/Graphics/SVG/1.1/DTD/svg11.dtd">
<!-- Creator: CorelDRAW X6 -->
<svg xmlns="http://www.w3.org/2000/svg" xml:space="preserve" width="0.821866in" height="0.627059in" version="1.1" style="shape-rendering:geometricPrecision; text-rendering:geometricPrecision; image-rendering:optimizeQuality; fill-rule:evenodd; clip-rule:evenodd"
viewBox="0 0 104 79"
 xmlns:xlink="http://www.w3.org/1999/xlink">
 <defs>
  <style type="text/css">
   <![CDATA[
    .str0 {stroke:#ab5410;stroke-width:3.52025}
    .fil1 {fill:none}
    .fil0 {fill:#ab5410}
    .fil2 {fill:#ab5410;fill-rule:nonzero}
   ]]>
  </style>
 </defs>
 <g id="Layer_x0020_1">
  <metadata id="CorelCorpID_0Corel-Layer"/>
  <g id="_721369856">
   <path class="fil0" d="M58 44c1,0 2,-1 2,-1l3 3c0,1 -1,2 -1,3 0,1 1,2 1,3 1,0 2,1 2,1l0 5c-1,0 -1,0 -2,1 -1,0 0,0 -1,1 -1,4 -4,7 -7,8 -1,0 -1,0 -1,0l-7 0c-4,-1 -7,-4 -8,-8 0,-1 0,-1 -1,-1 0,0 -2,-1 -2,-1l0 -5c2,-1 2,0 3,-1 0,0 0,-1 0,-1 1,-1 1,-1 0,-4l3 -3c3,1 1,1 4,0 2,-1 1,0 2,-2 0,0 0,-1 1,-1l5 0 1 2c0,1 0,0 0,0l3 1zm-6 3c-5,0 -8,4 -8,8 0,5 4,8 8,8 5,0 8,-4 8,-8 0,-5 -4,-8 -8,-8z"/>
   <line class="fil1 str0" x1="52" y1="30" x2="52" y2= "38" />
   <line class="fil1 str0" x1="67" y1="34" x2="62" y2= "41" />
   <line class="fil1 str0" x1="72" y1="47" x2="67" y2= "50" />
   <line class="fil1 str0" x1="37" y1="34" x2="42" y2= "41" />
   <line class="fil1 str0" x1="31" y1="47" x2="36" y2= "49" />
   <rect class="fil0" x="46" y="68" width="12" height="4" rx="2" ry="2"/>
   <path class="fil0" d="M47 72l9 0 0 4c0,2 -1,3 -3,3l-3 0c-2,0 -3,-1 -3,-3l0 -4z"/>
   <g>
    <path class="fil2" d="M24 66l14 0 0 4 -14 0 -2 -2 2 -2zm0 4l-2 0 0 -2 2 2zm2 -58l0 56 -4 0 0 -56 2 -2 2 2zm-4 0l0 -2 2 0 -2 2zm58 2l-56 0 0 -4 56 0 2 2 -2 2zm0 -4l2 0 0 2 -2 -2zm-2 58l0 -56 4 0 0 56 -2 2 -2 -2zm4 0l0 2 -2 0 2 -2zm-16 -2l14 0 0 4 -14 0 0 -4z"/>
   </g>
   <polygon class="fil0" points="87,12 87,69 104,79 104,0 "/>
   <polygon class="fil0" points="17,12 17,69 0,79 0,0 "/>
  </g>
 </g>
</svg>
