<?xml version="1.0" encoding="UTF-8"?>
<!DOCTYPE svg PUBLIC "-//W3C//DTD SVG 1.1//EN" "http://www.w3.org/Graphics/SVG/1.1/DTD/svg11.dtd">
<!-- Creator: CorelDRAW X6 -->
<svg xmlns="http://www.w3.org/2000/svg" xml:space="preserve" width="1.09863in" height="0.961445in" version="1.1" style="shape-rendering:geometricPrecision; text-rendering:geometricPrecision; image-rendering:optimizeQuality; fill-rule:evenodd; clip-rule:evenodd"
viewBox="0 0 212 185"
 xmlns:xlink="http://www.w3.org/1999/xlink">
 <defs>
  <style type="text/css">
   <![CDATA[
    .fil0 {fill:#b7b6b6}
   ]]>
  </style>
 </defs>
 <g id="Layer_x0020_1">
  <metadata id="CorelCorpID_0Corel-Layer"/>
  <g id="_1003925232">
   <path class="fil0" d="M74 25c0,-8 7,-15 15,-15l32 0c9,0 15,7 15,15l0 8 -63 0 0 -8zm-10 8c-6,0 -12,0 -18,0 -6,0 -12,0 -18,0 -4,0 -14,0 -18,0 -4,1 -8,5 -9,9 -1,3 0,14 0,18l0 55c0,6 0,9 4,14 4,4 8,3 15,3l64 0c3,0 3,1 3,-2 0,-7 -1,-14 5,-18 5,-4 8,-3 15,-3 7,0 11,-1 15,3 4,3 5,7 5,14 0,8 -1,6 3,6 3,0 6,0 9,0l55 0c3,0 7,0 9,0 2,-1 5,-2 6,-3 4,-4 4,-7 4,-14l0 -55c0,-4 1,-14 -1,-18 -1,-4 -5,-8 -9,-9 -3,-1 -31,0 -36,0 -6,0 -12,0 -18,0 0,-2 0,-7 0,-9 0,-12 -11,-23 -23,-24l-37 0c-10,1 -18,7 -21,16 -3,7 -1,12 -2,17z"/>
   <path class="fil0" d="M7 139c0,6 0,13 0,18 0,6 0,12 0,18 0,5 4,9 8,10 2,0 7,0 9,0l154 0c3,0 17,0 18,0 5,-1 8,-5 8,-10 0,-6 0,-12 0,-18 0,-6 0,-13 0,-18 -13,0 -27,0 -40,0 -5,0 -38,0 -39,0 0,7 1,13 -3,18 -4,5 -9,5 -17,5 -8,0 -12,0 -17,-5 -4,-5 -3,-11 -3,-18 -2,-1 -17,0 -20,0l-60 0z"/>
   <path class="fil0" d="M93 149c0,2 2,4 3,5 2,1 5,1 7,1 3,0 6,0 8,0 3,0 4,0 6,-2 2,-2 2,-4 2,-7l0 -17c0,-6 1,-11 -3,-13 -2,-1 -4,-1 -7,-1 -3,0 -6,0 -8,0 -3,0 -4,0 -6,2 -2,2 -2,4 -2,7 0,3 0,6 0,8 0,3 0,6 0,8 0,2 0,6 0,8z"/>
  </g>
 </g>
</svg>
