<?xml version="1.0" encoding="UTF-8"?>
<!DOCTYPE svg PUBLIC "-//W3C//DTD SVG 1.1//EN" "http://www.w3.org/Graphics/SVG/1.1/DTD/svg11.dtd">
<!-- Creator: CorelDRAW X7 -->
<svg xmlns="http://www.w3.org/2000/svg" xml:space="preserve" width="5.62142in" height="7.95002in" version="1.1" style="shape-rendering:geometricPrecision; text-rendering:geometricPrecision; image-rendering:optimizeQuality; fill-rule:evenodd; clip-rule:evenodd"
viewBox="0 0 5621 7950"
 xmlns:xlink="http://www.w3.org/1999/xlink">
 <defs>
  <style type="text/css">
   <![CDATA[
    .fil3 {fill:#373434}
    .fil1 {fill:#BDBFC1}
    .fil0 {fill:#F58735}
    .fil2 {fill:#FEFCFC}
   ]]>
  </style>
 </defs>
 <g id="Layer_x0020_1">
  <metadata id="CorelCorpID_0Corel-Layer"/>
  <g id="_562471717968">
   <path class="fil0" d="M1640 5922c21,13 768,5 819,5 84,0 191,6 273,-1l0 -1858c-290,-20 -486,-63 -724,-214 -33,-21 -62,-42 -92,-65 -32,-25 -57,-48 -87,-73l-116 -115c-155,-181 -352,-421 -337,-690 11,-186 141,-295 340,-283 246,16 454,180 620,321 57,48 108,104 159,158 121,131 162,244 236,390 19,-506 -79,-827 212,-1297 50,-81 110,-151 166,-212 43,-46 147,-140 198,-180 113,-90 321,-229 523,-241 249,-15 379,159 330,408 -35,177 -151,370 -263,497 -128,145 -230,253 -403,354 -166,96 -352,163 -578,183 -10,28 -4,1974 -4,2185 0,243 -4,490 0,732 79,6 428,1 535,1l520 0c34,-5 -20,5 8,-2l8 -3 -1 -553c16,-9 33,-15 51,-24 18,-9 33,-15 51,-24l37 -20c7,-4 6,-4 12,-7l263 -158c8,-6 12,-10 21,-16 17,-12 28,-19 45,-32l172 -135c46,-35 187,-168 230,-219l9 -10c0,-1 1,-2 2,-3l84 -95c8,-9 9,-10 18,-20 79,-101 156,-204 225,-313l208 -403c73,-166 147,-417 173,-597 13,-91 32,-183 35,-273 9,-307 7,-547 -67,-846 -5,-21 -8,-40 -14,-61l-90 -288c-7,-17 -13,-35 -21,-55 -9,-21 -15,-34 -24,-56 -15,-39 -30,-68 -47,-105 -48,-104 -102,-203 -164,-299 -40,-63 -81,-122 -125,-182l-448 -474c-30,-23 -54,-44 -85,-67 -51,-38 -101,-79 -156,-113 -11,-7 -13,-9 -22,-15 -32,-21 -62,-40 -96,-60 -132,-79 -261,-144 -411,-204 -134,-53 -269,-91 -408,-126 -155,-39 -335,-62 -516,-69l-236 0c-105,4 -207,14 -299,30 -207,35 -420,89 -608,162 -185,73 -365,165 -527,277l-114 79c-65,49 -132,100 -191,155 -59,55 -123,107 -175,170 -29,35 -64,66 -92,101l-52 62c-105,130 -196,266 -280,411 -47,81 -91,173 -127,260 -78,190 -137,385 -178,588 -38,189 -45,372 -45,565 0,56 5,100 5,151 -1,63 29,271 44,338 41,180 85,362 159,531l98 210c101,202 229,377 369,552 49,61 170,188 229,235 26,21 52,51 79,72l238 183c100,71 208,127 314,187l106 50 -1 553z"/>
   <path class="fil1" d="M3983 5922l-8 3c-28,7 26,-3 -8,2l-520 0c-107,0 -456,5 -535,-1l-180 0c-82,7 -189,1 -273,1 -51,0 -798,8 -819,-5 -20,11 -94,-4 -156,94 -12,19 -19,39 -22,63 -12,84 -6,543 -6,666 0,52 -3,118 4,162 7,48 18,83 52,118 71,71 174,51 285,51l2189 0c47,0 89,-19 122,-49 72,-66 58,-185 58,-278 0,-122 7,-582 -5,-666 -3,-25 -9,-45 -21,-64 -60,-100 -139,-87 -157,-97z"/>
   <path class="fil2" d="M2732 5926l180 0c-4,-242 0,-489 0,-732 0,-211 -6,-2157 4,-2185 226,-20 412,-87 578,-183 173,-101 275,-209 403,-354 112,-127 228,-320 263,-497 49,-249 -81,-423 -330,-408 -202,12 -410,151 -523,241 -51,40 -155,134 -198,180 -56,61 -116,131 -166,212 -291,470 -193,791 -212,1297 -74,-146 -115,-259 -236,-390 -51,-54 -102,-110 -159,-158 -166,-141 -374,-305 -620,-321 -199,-12 -329,97 -340,283 -15,269 182,509 337,690l116 115c30,25 55,48 87,73 30,23 59,44 92,65 238,151 434,194 724,214l0 1858z"/>
   <path class="fil3" d="M1650 7421c0,74 54,123 114,123l2095 0c136,0 176,-232 -29,-232l-2038 0c-77,0 -142,38 -142,109z"/>
   <path class="fil3" d="M2038 7837c0,54 48,113 104,113l1338 0c44,0 83,-40 94,-67 34,-82 -32,-160 -98,-160l-1329 0c-57,0 -109,57 -109,114z"/>
  </g>
 </g>
</svg>
