<?xml version="1.0" encoding="UTF-8"?>
<!DOCTYPE svg PUBLIC "-//W3C//DTD SVG 1.1//EN" "http://www.w3.org/Graphics/SVG/1.1/DTD/svg11.dtd">
<!-- Creator: CorelDRAW X7 -->
<svg xmlns="http://www.w3.org/2000/svg" xml:space="preserve" width="7.27135in" height="7.95002in" version="1.1" style="shape-rendering:geometricPrecision; text-rendering:geometricPrecision; image-rendering:optimizeQuality; fill-rule:evenodd; clip-rule:evenodd"
viewBox="0 0 7271 7950"
 xmlns:xlink="http://www.w3.org/1999/xlink">
 <defs>
  <style type="text/css">
   <![CDATA[
    .fil4 {fill:#00AFEF}
    .fil3 {fill:#373335}
    .fil2 {fill:#BDBFC1}
    .fil0 {fill:#F58634}
    .fil1 {fill:#FEFEFE}
   ]]>
  </style>
 </defs>
 <g id="Layer_x0020_1">
  <metadata id="CorelCorpID_0Corel-Layer"/>
  <g id="_562479683504">
   <path class="fil0" d="M3375 1619c0,-100 1,-201 0,-302 0,-96 44,-155 140,-155l494 0c100,0 139,63 139,160 -1,99 -1,199 -1,298 105,29 260,111 345,176l98 75c55,-30 113,-65 167,-96 42,-25 126,-85 182,-83 84,2 109,64 142,122l193 334c34,60 77,118 23,193 -40,55 -268,153 -322,202 0,37 12,84 16,124 17,165 0,227 -19,380 52,34 114,67 170,99 50,29 132,67 157,106 51,76 7,134 -27,193 -32,56 -64,111 -97,167 -32,55 -64,112 -96,167 -33,57 -59,120 -145,119 -76,-1 -282,-160 -350,-180 -35,21 -92,81 -202,144 -64,37 -154,83 -234,104 -4,97 -1,204 0,302 0,97 -40,160 -139,160l-494 0c-100,0 -140,-62 -140,-160 1,-99 3,-203 0,-301 -137,-45 -281,-123 -389,-213 -18,-14 -27,-24 -46,-36 -69,19 -275,181 -355,180 -84,-2 -110,-65 -142,-122 -34,-59 -64,-109 -97,-167 -32,-56 -63,-109 -97,-167 -35,-60 -74,-118 -23,-194 25,-37 269,-167 325,-201 -18,-156 -36,-218 -18,-385 4,-35 16,-87 16,-119 -36,-30 -122,-73 -167,-99 -50,-29 -133,-67 -157,-105 -52,-80 -7,-136 26,-195 33,-57 63,-108 97,-167 32,-57 63,-108 96,-167 33,-58 60,-120 146,-118 64,1 277,146 344,179 22,-9 34,-25 52,-40 132,-99 222,-154 389,-212zm254 -1619l237 0c79,3 153,8 190,12l264 42c161,32 321,78 474,140 38,15 71,28 109,46l301 156c107,58 362,245 443,326 14,13 26,27 41,40 17,14 23,18 40,35l148 158c46,55 96,110 138,168 22,31 43,60 64,92l120 187c61,96 103,198 153,304 16,35 30,77 44,112 14,37 26,72 39,111l68 238c75,302 92,678 53,992 -41,333 -139,646 -288,937 -52,100 -112,196 -174,289 -100,151 -219,293 -347,422l-161 145c-80,74 -171,134 -259,197 -122,88 -260,151 -392,221l-2 554c-15,6 -2322,8 -2340,0l-2 -554c-35,-19 -66,-33 -105,-51 -142,-63 -337,-203 -467,-301 -58,-43 -115,-91 -165,-141 -28,-28 -53,-47 -81,-76l-180 -201c-82,-100 -156,-203 -226,-312 -20,-31 -36,-62 -56,-94 -11,-19 -17,-34 -28,-53 -49,-82 -90,-173 -125,-262 -76,-191 -135,-390 -169,-594 -7,-43 -15,-89 -21,-135 -2,-23 -3,-43 -7,-68 -8,-66 -5,-161 -13,-218 -9,-66 18,-375 25,-429 45,-325 143,-645 298,-934 54,-99 112,-194 175,-287 11,-17 19,-28 31,-44 12,-16 19,-27 32,-44l286 -326c182,-183 439,-371 669,-487 274,-136 562,-235 867,-283 46,-8 85,-10 133,-17 48,-7 98,-4 145,-11 6,-1 13,-1 21,-2z"/>
   <path class="fil1" d="M4397 2887c-46,320 -345,594 -726,542 -321,-45 -601,-348 -544,-731 49,-322 346,-592 725,-540 321,43 600,346 545,729zm-1022 -1268c-167,58 -257,113 -389,212 -18,15 -30,31 -52,40 -67,-33 -280,-178 -344,-179 -86,-2 -113,60 -146,118 -33,59 -64,110 -96,167 -34,59 -64,110 -97,167 -33,59 -78,115 -26,195 24,38 107,76 157,105 45,26 131,69 167,99 0,32 -12,84 -16,119 -18,167 0,229 18,385 -56,34 -300,164 -325,201 -51,76 -12,134 23,194 34,58 65,111 97,167 33,58 63,108 97,167 32,57 58,120 142,122 80,1 286,-161 355,-180 19,12 28,22 46,36 108,90 252,168 389,213 3,98 1,202 0,301 0,98 40,160 140,160l494 0c99,0 139,-63 139,-160 -1,-98 -4,-205 0,-302 80,-21 170,-67 234,-104 110,-63 167,-123 202,-144 68,20 274,179 350,180 86,1 112,-62 145,-119 32,-55 64,-112 96,-167 33,-56 65,-111 97,-167 34,-59 78,-117 27,-193 -25,-39 -107,-77 -157,-106 -56,-32 -118,-65 -170,-99 19,-153 36,-215 19,-380 -4,-40 -16,-87 -16,-124 54,-49 282,-147 322,-202 54,-75 11,-133 -23,-193l-193 -334c-33,-58 -58,-120 -142,-122 -56,-2 -140,58 -182,83 -54,31 -112,66 -167,96l-98 -75c-85,-65 -240,-147 -345,-176 0,-99 0,-199 1,-298 0,-97 -39,-160 -139,-160l-494 0c-96,0 -140,59 -140,155 1,101 0,202 0,302z"/>
   <path class="fil2" d="M4932 5924c-15,6 -2322,8 -2340,0 -101,7 -162,62 -181,153 -10,44 -3,576 -3,669 0,133 -15,212 57,281 68,65 155,52 281,52l2021 0c124,0 222,13 289,-49 71,-66 60,-143 60,-273 0,-100 7,-622 -3,-675 -16,-92 -82,-151 -181,-158z"/>
   <path class="fil0" d="M4397 2887c55,-383 -224,-686 -545,-729 -379,-52 -676,218 -725,540 -57,383 223,686 544,731 381,52 680,-222 726,-542z"/>
   <path class="fil3" d="M2601 7418c0,39 -1,55 34,90 18,19 32,33 68,33l2123 0c37,0 97,-44 97,-118 0,-52 -49,-107 -102,-107l-2118 0c-57,0 -102,55 -102,102z"/>
   <path class="fil0" d="M392 4058l0 269 -258 0c-87,0 -128,50 -134,103l0 27c6,52 45,101 107,101l285 0 0 274c0,80 67,124 113,124 58,0 118,-54 118,-113l0 -285 285 0c105,0 144,-140 69,-203 -23,-18 -56,-28 -96,-28l-258 0 0 -279c0,-145 -231,-158 -231,10z"/>
   <path class="fil0" d="M6648 317l0 285 -290 0c-85,0 -139,116 -74,192 11,14 41,34 63,34l301 0 0 285c0,142 231,160 231,-11l0 -274 301 0c21,0 52,-22 63,-34 17,-16 26,-39 28,-63l0 -23c-4,-54 -41,-106 -102,-106l-290 0 0 -274c0,-168 -231,-150 -231,-11z"/>
   <path class="fil3" d="M2988 7832c0,68 51,118 108,118l1332 0c142,0 139,-226 0,-226l-1343 0c-45,0 -97,59 -97,108z"/>
   <path class="fil4" d="M747 919c0,-129 150,-182 233,-104 103,99 5,283 -147,227 -14,-5 -30,-17 -42,-27 -19,-18 -44,-62 -44,-96zm-183 -21c0,67 4,97 32,156 17,34 20,43 45,68 10,10 12,15 19,24 22,23 65,49 93,63 207,98 456,-65 456,-290 0,-135 -75,-239 -184,-294 -75,-37 -176,-42 -259,-9 -110,43 -202,164 -202,282z"/>
   <path class="fil4" d="M6503 4628c0,-122 144,-176 227,-104 95,83 38,245 -92,242 -73,-2 -135,-60 -135,-138zm-183 -16c0,111 30,195 117,265 145,118 348,94 467,-63 35,-46 57,-118 60,-181 2,-39 -13,-97 -28,-132 -8,-19 -17,-36 -28,-53 -8,-12 -8,-10 -17,-20 -25,-28 -2,-11 -40,-41 -9,-8 -12,-12 -22,-20 -17,-13 -34,-20 -52,-29 -157,-78 -346,-6 -424,145 -16,30 -33,85 -33,129z"/>
  </g>
 </g>
</svg>
