<?xml version="1.0" encoding="UTF-8"?>
<!DOCTYPE svg PUBLIC "-//W3C//DTD SVG 1.1//EN" "http://www.w3.org/Graphics/SVG/1.1/DTD/svg11.dtd">
<!-- Creator: CorelDRAW X7 -->
<svg xmlns="http://www.w3.org/2000/svg" xml:space="preserve" width="5.00001in" height="7.95002in" version="1.1" style="shape-rendering:geometricPrecision; text-rendering:geometricPrecision; image-rendering:optimizeQuality; fill-rule:evenodd; clip-rule:evenodd"
viewBox="0 0 5000 7950"
 xmlns:xlink="http://www.w3.org/1999/xlink">
 <defs>
  <style type="text/css">
   <![CDATA[
    .fil4 {fill:#00AFEF}
    .fil5 {fill:#373435}
    .fil2 {fill:#BDBFC1}
    .fil1 {fill:#DE7B32}
    .fil0 {fill:#F48634}
    .fil3 {fill:#FCFCFC}
   ]]>
  </style>
 </defs>
 <g id="Layer_x0020_1">
  <metadata id="CorelCorpID_0Corel-Layer"/>
  <g id="_562478842672">
   <path class="fil0" d="M2612 2445l737 1c-8,26 -46,90 -61,117 -145,256 -285,534 -431,790 -17,30 -476,882 -494,900l0 -1243 -712 0 1012 -1886 -51 1321zm2388 -53l0 162c0,16 0,34 0,52l0 15c0,38 -6,77 -9,112 -15,175 -55,374 -111,540l-33 96c-5,12 -5,13 -10,26 -43,123 -156,345 -227,450 -11,16 -16,26 -26,41l-258 326 -131 128c-13,10 -20,20 -32,30 -25,20 -44,39 -70,59l-147 113 -237 150c-16,9 -28,14 -44,22 -15,8 -26,15 -41,22 -17,9 -29,14 -45,22 -34,14 -33,12 -35,28 -10,18 -3,425 -4,486l-1261 0 0 -497c-13,-11 -68,-33 -87,-43 -295,-153 -584,-373 -794,-633 -39,-49 -74,-93 -113,-146 -350,-487 -540,-1145 -436,-1836 64,-419 226,-781 458,-1099 74,-103 126,-160 208,-246 268,-280 591,-496 985,-634 60,-22 132,-44 198,-60 23,-6 204,-43 208,-47 84,5 336,77 420,106l184 74 260 133c81,48 157,98 232,155 26,19 47,36 73,56l53 46c8,7 9,6 17,13 24,21 45,40 67,63l132 131c14,14 18,23 31,36 39,40 110,132 144,177 78,104 135,205 198,318 32,57 96,196 121,268 34,96 70,194 93,295l33 162c4,18 7,34 9,54 3,21 6,38 9,58 12,89 17,152 18,216zm-1963 -1701c-17,-71 47,-114 116,-91 171,56 307,118 458,210 588,359 958,1019 962,1714 1,38 -10,63 -32,80 -21,17 -55,22 -83,8 -59,-29 -44,-102 -48,-178 -7,-131 -29,-261 -61,-382 -158,-595 -603,-1068 -1176,-1276 -56,-21 -122,-27 -136,-85zm-136 -53c-29,68 -102,44 -179,37 -77,-8 -152,-11 -231,-9 -74,2 -148,8 -220,19 -37,5 -70,9 -96,-12 -22,-17 -39,-55 -23,-94 22,-57 112,-56 178,-63 149,-15 304,-14 451,4 35,4 74,5 98,24 21,17 38,56 22,94z"/>
   <path class="fil1" d="M1456 4790c12,17 4,198 4,235 0,82 -1,165 0,247l819 0 0 -497c-13,-11 -68,-33 -87,-43 -295,-153 -584,-373 -794,-633 -39,-49 -74,-93 -113,-146 -350,-487 -540,-1145 -436,-1836 64,-419 226,-781 458,-1099 74,-103 126,-160 208,-246 268,-280 591,-496 985,-634 60,-22 132,-44 198,-60 23,-6 204,-43 208,-47l-121 -17c-26,-2 -40,-3 -66,-6 -19,-2 -44,-2 -67,-4 -13,-2 -27,-3 -40,-4l-258 0c-240,16 -492,74 -699,144 -92,32 -212,85 -301,132l-93 50c-133,76 -340,221 -456,333 -13,12 -22,23 -35,35l-207 222c-66,84 -123,160 -181,251 -81,130 -89,155 -152,281 -40,79 -95,225 -120,312 -43,145 -84,317 -97,473 -1,17 -5,49 -7,64 -3,21 -5,59 -6,104l0 184c1,56 4,104 7,128 4,25 5,44 7,69 15,182 73,403 137,580 72,201 195,435 325,608l127 162c27,32 150,164 176,185l95 83c158,127 145,118 311,228 78,51 171,97 255,138 16,8 17,4 16,24z"/>
   <path class="fil2" d="M2279 5272l-819 0c-1,-82 0,-165 0,-247 0,-37 8,-218 -4,-235 6,28 6,447 0,480 -33,9 -45,5 -75,22 -19,11 -40,30 -52,46 -35,49 -30,102 -30,169 0,134 1,268 0,402l-871 0c26,11 770,3 869,3 0,63 -9,231 12,282 34,83 102,102 197,102l1983 0c82,0 112,-4 159,-42 42,-33 56,-86 55,-141 0,-67 0,-134 0,-201 99,0 843,8 869,-3l-871 0c-1,-132 0,-265 0,-398 0,-67 7,-116 -27,-167 -25,-38 -65,-68 -128,-72 -8,-26 -5,-432 -2,-486 -10,18 -3,425 -4,486l-1261 0z"/>
   <path class="fil3" d="M2663 1124l-1012 1886 712 0 0 1243c18,-18 477,-870 494,-900 146,-256 286,-534 431,-790 15,-27 53,-91 61,-117l-737 -1 51 -1321z"/>
   <path class="fil4" d="M4572 5909c-18,-33 -41,-44 -62,-72l-51 -56c-1,-1 -3,-4 -4,-5l-878 -955c-13,-13 -20,-29 -33,-35 -3,54 -6,460 2,486 63,4 103,34 128,72 34,51 27,100 27,167 0,133 -1,266 0,398l871 0z"/>
   <path class="fil4" d="M428 5909l871 0c1,-134 0,-268 0,-402 0,-67 -5,-120 30,-169 12,-16 33,-35 52,-46 30,-17 42,-13 75,-22 6,-33 6,-452 0,-480l-279 303c-3,4 -4,5 -8,9l-148 160c-1,0 -2,1 -2,2 -1,1 -2,2 -2,3 -4,4 -5,5 -9,9 -12,12 -22,21 -33,34 -13,16 -19,22 -34,37l-416 453c-14,13 -20,19 -32,35 -23,29 -46,40 -65,74z"/>
   <path class="fil3" d="M3037 691c14,58 80,64 136,85 573,208 1018,681 1176,1276 32,121 54,251 61,382 4,76 -11,149 48,178 28,14 62,9 83,-8 22,-17 33,-42 32,-80 -4,-695 -374,-1355 -962,-1714 -151,-92 -287,-154 -458,-210 -69,-23 -133,20 -116,91z"/>
   <path class="fil5" d="M2139 6612l0 1231c0,67 44,102 92,107l21 0c48,-5 92,-40 92,-107l0 -1231c0,-142 -205,-142 -205,0z"/>
   <path class="fil5" d="M3053 6595l0 954c0,118 200,120 200,-5l0 -945c0,-124 -200,-121 -200,-4z"/>
   <path class="fil5" d="M2678 6590l0 491c0,48 49,93 98,93 54,0 103,-41 103,-93l0 -491c0,-58 -99,-123 -170,-59 -10,9 -31,42 -31,59z"/>
   <path class="fil5" d="M1747 6599l0 482c0,48 50,93 98,93 54,0 102,-41 102,-93l0 -486c0,-47 -45,-90 -98,-90 -53,0 -102,42 -102,94z"/>
   <path class="fil3" d="M2901 638c16,-38 -1,-77 -22,-94 -24,-19 -63,-20 -98,-24 -147,-18 -302,-19 -451,-4 -66,7 -156,6 -178,63 -16,39 1,77 23,94 26,21 59,17 96,12 72,-11 146,-17 220,-19 79,-2 154,1 231,9 77,7 150,31 179,-37z"/>
  </g>
 </g>
</svg>
