<?xml version="1.0" encoding="UTF-8"?>
<!DOCTYPE svg PUBLIC "-//W3C//DTD SVG 1.1//EN" "http://www.w3.org/Graphics/SVG/1.1/DTD/svg11.dtd">
<!-- Creator: CorelDRAW X6 -->
<svg xmlns="http://www.w3.org/2000/svg" xml:space="preserve" width="0.761941in" height="0.863157in" version="1.1" style="shape-rendering:geometricPrecision; text-rendering:geometricPrecision; image-rendering:optimizeQuality; fill-rule:evenodd; clip-rule:evenodd"
viewBox="0 0 116 131"
 xmlns:xlink="http://www.w3.org/1999/xlink">
 <defs>
  <style type="text/css">
   <![CDATA[
    .fil2 {fill:none}
    .fil0 {fill:black}
    .fil1 {fill:black;fill-rule:nonzero}
   ]]>
  </style>
 </defs>
 <g id="Layer_x0020_1">
  <metadata id="CorelCorpID_0Corel-Layer"/>
  <path class="fil0" d="M39 86l37 0 0 -7c-1,-6 -3,-6 -7,-8 -2,-1 -3,-2 -5,-2l-2 6c0,1 -1,2 -1,3 0,0 0,1 0,2 0,1 0,1 -1,1 0,-1 -1,-3 -1,-4 0,-1 4,-5 -1,-5 -4,0 -1,5 -1,5 0,0 -1,3 -1,4 -1,-1 -3,-7 -3,-9 0,-1 -1,-2 -1,-3 -1,0 -4,2 -5,2 -2,1 -4,1 -5,2 -1,1 -2,3 -2,5l0 7z"/>
  <path class="fil0" d="M48 52c0,2 0,2 0,3 -1,0 -1,0 -1,1 0,1 1,4 1,4 2,2 0,1 2,4 4,7 14,5 14,-3l1 0c1,-1 1,-3 2,-4 0,-2 0,-1 -1,-3 0,-1 2,-6 -1,-8 -1,-1 -1,0 -1,-1 -1,-1 -1,-1 -2,-2 -2,-1 -6,-1 -8,0 -3,2 -6,4 -6,8z"/>
  <path class="fil1" d="M69 12l15 9 0 0 15 9c-1,1 -2,2 -2,3l-15 -9 0 0 -14 -8c1,-1 1,-2 1,-3zm41 37l0 16 0 16c-1,0 -2,0 -3,0 0,0 0,0 -1,0l0 -16 0 -16c0,0 0,0 1,0 1,0 2,0 3,0zm-11 53l-16 9 0 0 -15 9c0,-1 -1,-2 -1,-3l14 -8 0 0 15 -9c1,1 2,2 2,3zm-53 18l-15 -9 0 0 -15 -9c1,-1 2,-2 3,-3l14 8 0 0 14 8c-1,1 -1,2 -1,3zm-41 -37l0 -16 0 -17c1,0 2,1 4,1l0 16 0 16c-1,0 -3,0 -4,1zm11 -53l15 -9 0 0 15 -9c0,1 1,2 1,3l-14 8 0 0 -14 8c-1,-1 -2,-2 -3,-3z"/>
  <circle class="fil0" cx="57" cy="9" r="9"/>
  <circle class="fil0" cx="57" cy="122" r="9"/>
  <circle class="fil0" cx="107" cy="38" r="9"/>
  <circle class="fil0" cx="107" cy="93" r="9"/>
  <circle class="fil0" cx="9" cy="38" r="9"/>
  <circle class="fil0" cx="9" cy="93" r="9"/>
  <line class="fil2" x1="57" y1="111" x2="57" y2= "23" />
  <path class="fil1" d="M56 111l0 -17c1,0 1,0 2,0 1,0 1,0 2,0l0 17 -4 0zm0 -71l0 -17 4 0 0 17c-1,0 -1,0 -2,0 -1,0 -1,0 -2,0z"/>
  <line class="fil2" x1="19" y1="45" x2="96" y2= "89" />
  <path class="fil1" d="M20 44l15 9c-1,1 -1,2 -2,3l-15 -9 2 -3zm62 36l15 9 -2 3 -15 -9c1,-1 1,-2 2,-3z"/>
  <line class="fil2" x1="96" y1="45" x2="19" y2= "89" />
  <path class="fil1" d="M97 47l-15 9c-1,-1 -1,-2 -2,-3l15 -9 2 3zm-62 36l-15 9 -2 -3 15 -9c1,1 1,2 2,3z"/>
 </g>
</svg>
