<?xml version="1.0" encoding="UTF-8"?>
<!DOCTYPE svg PUBLIC "-//W3C//DTD SVG 1.1//EN" "http://www.w3.org/Graphics/SVG/1.1/DTD/svg11.dtd">
<!-- Creator: CorelDRAW X6 -->
<svg xmlns="http://www.w3.org/2000/svg" xml:space="preserve" width="1.17609in" height="1.36624in" version="1.1" style="shape-rendering:geometricPrecision; text-rendering:geometricPrecision; image-rendering:optimizeQuality; fill-rule:evenodd; clip-rule:evenodd"
viewBox="0 0 1450 1684"
 xmlns:xlink="http://www.w3.org/1999/xlink">
 <defs>
  <style type="text/css">
   <![CDATA[
    .fil0 {fill:#b7b6b6}
   ]]>
  </style>
 </defs>
 <g id="Layer_x0020_1">
  <metadata id="CorelCorpID_0Corel-Layer"/>
  <g id="_1003928176">
   <path class="fil0" d="M548 151l-17 4c-3,1 -3,0 -7,1l-5 2c0,0 -1,0 -1,0l-40 15c-15,7 -30,15 -43,26 -3,2 -2,2 -4,4l-33 30c0,0 -1,1 -1,1l-16 20c-13,16 -23,36 -30,55l-4 11c-1,3 -2,7 -3,11l-14 64c-3,26 -3,56 -3,83 0,15 4,27 5,42l12 58c2,6 2,-1 2,6 0,2 -20,25 -22,42 -2,14 -7,30 -1,50 1,5 1,13 3,19l10 25c1,2 1,2 2,4l17 26c6,8 -5,-6 1,2 0,0 1,1 1,2 13,15 31,24 51,24l28 82c1,2 1,3 2,5 2,5 4,8 6,12 10,22 19,38 32,59l10 15c3,4 5,8 8,12l7 9c9,10 17,21 27,30l25 22c0,0 1,0 1,1 12,10 24,18 37,25l41 19c1,1 5,2 7,3l30 9c11,3 42,4 54,5 15,2 43,-3 58,-7 5,-1 5,-1 9,-2l27 -8c0,0 2,-1 2,-1l19 -9c0,0 1,0 1,-1 0,0 1,0 1,-1 35,-19 53,-33 81,-61l10 -11c1,-1 1,-1 2,-3l15 -18c5,-8 10,-15 16,-23l8 -12c0,0 1,-2 1,-2l6 -10c2,-4 4,-8 7,-12l7 -13c0,0 0,-1 1,-1 0,0 0,-1 1,-1l22 -53c2,-5 3,-9 5,-14l4 -13c3,-10 9,-21 10,-32 15,0 20,-1 30,-7 11,-6 18,-14 26,-23 8,-9 14,-19 19,-30 1,-1 2,-5 3,-6 5,-12 10,-25 10,-39 0,-7 1,-14 1,-17l-4 -34c-2,-9 -13,-33 -23,-36 0,-12 7,-35 8,-45l3 -16c1,-6 1,-9 2,-15 3,-20 2,-24 3,-34 1,-5 3,-8 3,-16l0 -67c0,-9 -3,-11 -3,-19 -4,-50 -5,-32 -11,-66 -1,-6 0,-4 -2,-9l-6 -20c0,0 0,-1 0,-1l-1 -3c0,0 0,-1 0,-1 0,0 0,-1 0,-1l-8 -21c-6,-16 -14,-29 -22,-43 -14,-27 -36,-52 -58,-73l-23 -20c-4,-3 -8,-6 -12,-9l-41 -25c-5,-2 -9,-5 -15,-7l-31 -13c-1,0 -2,-1 -4,-1 -22,-8 -42,-13 -66,-17l-40 -4c-17,0 -50,1 -65,5l-29 6c-7,2 0,2 -10,3l50 -28c4,-1 9,-4 14,-5l32 -7c9,-1 11,0 11,-9l-37 0 -41 10c-19,5 -36,15 -52,24l-24 17c-20,18 -39,35 -52,59 0,0 0,1 -1,1l-9 16c-3,7 -8,16 -9,24z"/>
   <path class="fil0" d="M723 1277c-6,0 -31,-21 -37,-25l-196 -146c-7,-6 -18,-15 -26,-18 -10,-4 -28,9 -39,13 -1,1 -3,1 -4,2l-81 36c0,0 -1,0 -1,0 0,0 -2,1 -2,1 0,0 -1,0 -1,0l-44 17c-5,2 -9,4 -14,6l-4 2c0,0 -1,0 -1,0 0,0 -1,0 -1,0l-120 53c-4,3 -8,5 -13,8 -5,3 -7,5 -12,9l-12 9c-16,13 -29,27 -42,42l-34 50c-11,22 -17,38 -25,61 -1,3 -2,4 -3,8 -9,33 -10,66 -10,101 0,15 13,17 34,27 1,0 3,1 4,2l9 4c0,0 1,0 1,1l55 23c20,9 50,19 72,26 4,1 5,2 10,3l81 25c17,5 36,8 53,14l21 4c7,1 5,1 10,2l51 11c5,1 6,1 11,1 15,2 23,6 41,7 7,1 5,2 10,3l22 3c7,1 15,2 21,4 9,3 13,0 23,2 11,1 8,2 22,3 7,0 14,2 21,4 7,1 15,1 24,1 8,0 14,3 22,3 8,0 16,-1 23,0 6,1 16,2 22,3 24,2 47,0 72,0 10,0 14,3 23,1 12,-1 11,-1 22,0 9,1 13,-2 23,-2 16,0 33,0 48,0 10,0 12,-3 22,-3 8,0 17,1 25,0 7,-1 14,-3 22,-3 28,-1 35,-4 45,-5 12,0 12,-2 22,-3 14,-2 30,-1 44,-5l21 -4c5,-1 3,-2 10,-3 15,-1 38,-5 53,-9l20 -5c26,-5 51,-11 77,-18l69 -20c0,0 1,0 1,0l66 -23c0,0 1,0 1,0 0,0 1,0 1,0l27 -10c2,-1 3,-1 5,-2l44 -17c19,-9 26,-1 21,-37 -2,-16 1,-34 0,-50 -2,-22 -5,-43 -11,-64l-38 -85 -26 -35c0,0 -1,-1 -1,-1 -2,-3 -4,-4 -6,-6 -2,-2 -1,-1 -3,-3l-15 -16c-3,-2 -5,-4 -7,-6 0,0 -1,0 -1,-1l-49 -35c-3,-2 -5,-2 -8,-4l-80 -34c0,0 -2,-1 -2,-1l-22 -9c0,0 -1,0 -1,0l-70 -28c-13,-5 -23,-9 -36,-14l-29 -13c-19,-8 -37,-16 -54,-28 -13,-9 -18,-2 -28,6l-23 18c-1,1 -2,1 -4,3l-201 161c0,0 -1,1 -1,1 0,0 -1,1 -1,1 -2,2 -5,5 -9,5z"/>
  </g>
 </g>
</svg>
