<?xml version="1.0" encoding="UTF-8"?>
<!DOCTYPE svg PUBLIC "-//W3C//DTD SVG 1.1//EN" "http://www.w3.org/Graphics/SVG/1.1/DTD/svg11.dtd">
<!-- Creator: CorelDRAW X6 -->
<svg xmlns="http://www.w3.org/2000/svg" xml:space="preserve" width="1.23478in" height="1.37555in" version="1.1" style="shape-rendering:geometricPrecision; text-rendering:geometricPrecision; image-rendering:optimizeQuality; fill-rule:evenodd; clip-rule:evenodd"
viewBox="0 0 722 804"
 xmlns:xlink="http://www.w3.org/1999/xlink">
 <defs>
  <style type="text/css">
   <![CDATA[
    .fil0 {fill:#ffffff}
   ]]>
  </style>
 </defs>
 <g id="Layer_x0020_1">
  <metadata id="CorelCorpID_0Corel-Layer"/>
  <g id="_1008992496">
   <path class="fil0" d="M117 510l0 -3 4 3 -4 1zm119 40c6,0 11,5 11,11 0,6 -5,11 -11,11 -6,0 -11,-5 -11,-11 0,-6 5,-11 11,-11zm435 -322c6,0 11,5 11,11 0,6 -5,11 -11,11 -6,0 -11,-5 -11,-11 0,-6 5,-11 11,-11zm-265 154c6,0 11,5 11,11 0,6 -5,11 -11,11 -6,0 -11,-5 -11,-11 0,-6 5,-11 11,-11zm-126 -76c6,0 11,5 11,11 0,6 -5,11 -11,11 -6,0 -11,-5 -11,-11 0,-6 5,-11 11,-11zm-204 77c6,0 11,5 11,11 0,6 -5,11 -11,11 -6,0 -11,-5 -11,-11 0,-6 5,-11 11,-11zm134 -198c6,0 11,5 11,11 0,6 -5,11 -11,11 -6,0 -11,-5 -11,-11 0,-6 5,-11 11,-11zm82 160c20,-18 41,-32 62,-44 -15,-18 -34,-34 -57,-44 -16,-8 -33,-12 -49,-15 -8,-1 -15,-2 -22,-2 13,6 24,12 33,20 11,10 20,22 24,36 10,2 18,10 18,21 0,6 -5,18 -10,27zm-16 -48c-4,-12 -11,-22 -21,-31 -11,-10 -27,-18 -46,-24 -19,2 -36,8 -52,17 -26,15 -48,38 -62,68 -7,15 -12,31 -14,48 10,2 17,11 17,21 0,2 0,4 -1,7 22,-23 45,-38 71,-46 33,-11 70,-10 109,-1 -7,-9 -18,-28 -18,-37 0,-10 8,-19 17,-21zm-202 77c3,-18 8,-35 15,-50 14,-31 37,-55 65,-71 16,-9 34,-15 54,-18 -7,-9 -19,-28 -19,-37 0,-12 10,-21 21,-21 12,0 21,10 21,21 0,9 -9,27 -15,36 11,-1 21,0 33,1 17,2 34,7 51,15 25,11 45,28 60,47 19,-10 39,-19 60,-25 -3,-2 -8,-3 -18,-1 -15,3 -19,-1 -26,-4 -10,-5 -16,-5 -25,-10 -8,-5 -16,-13 -27,-17 -1,0 -1,0 -2,-1l-13 -3c6,-11 1,-15 8,-26 6,-9 11,-9 16,-19 -11,-3 -18,-12 -28,-17l-11 -6c-9,-6 -2,-7 -16,-4 0,-29 -6,-15 -7,-38 5,2 6,5 13,5 3,0 9,-3 15,-5l-5 -13c0,0 -1,-1 -1,-2 0,0 -1,-1 -1,-2l-3 -3c0,0 -1,-1 -2,-1 -7,-8 -4,-8 -7,-21 21,0 10,1 20,-11l5 -6c30,-36 -11,-41 -41,-30 -23,9 -29,-6 -43,-18 -23,-19 -17,-27 -52,-21l-8 3c-7,3 -8,0 -18,7l-14 24c11,0 7,-1 15,2 1,0 6,4 7,5 1,0 2,2 3,2l3 2c4,4 0,3 7,5l0 10c-20,5 -13,23 -14,52l41 21c-6,22 -7,0 -17,16l-15 37c-6,10 -12,11 -17,18l-2 4c-15,29 -10,13 -23,26 -9,9 -1,10 -12,19 -8,6 -8,3 -18,6 -1,0 -2,2 -3,1 0,-1 -2,0 -3,1 -10,-4 -5,8 -7,-10 -14,1 -21,10 -29,20 -12,14 -9,21 12,22 -1,14 -6,12 -1,22 8,14 1,0 9,7 0,0 1,1 1,1l2 3c4,8 8,16 7,26 -1,21 -10,6 -11,6 -16,-2 -9,4 -29,0 -17,-3 -18,0 -27,5 0,0 -1,1 -2,1l-8 12c5,-3 4,-2 10,-3 -4,7 -1,1 -3,10 13,9 16,26 48,14 0,0 0,0 0,0 0,-11 8,-20 19,-21zm-18 28c0,0 -1,1 -1,1 -19,15 -50,-3 -28,22 14,16 25,35 39,37 21,3 31,-7 36,-18 -7,-3 -15,-5 -23,-8 -1,1 -1,1 -2,1 -3,-1 -17,-22 -22,-35zm49 35c3,-10 2,-20 2,-20 11,8 2,0 6,10l4 15c20,9 38,20 54,32 19,16 35,35 46,56 -2,-32 1,-64 10,-92 10,-32 26,-59 47,-77 -37,-8 -72,-9 -104,1 -31,10 -59,29 -83,61 -1,2 -2,4 -3,6 7,2 14,4 21,7zm12 12c-1,25 6,3 1,23 -8,31 -1,36 -1,36 0,0 0,1 1,2 0,20 13,76 21,92l21 44c8,26 1,33 21,55 6,7 10,12 13,21 10,26 9,50 22,64 10,11 20,26 38,11 20,-16 -5,-22 32,-23 -3,-12 -6,-12 2,-22 7,-9 13,-9 22,-9 0,-38 -8,-36 4,-55 3,-5 9,-14 9,-24 -1,-10 0,3 -2,-8 -7,-34 -7,-40 4,-61 19,2 11,9 21,-3 11,-14 -2,-9 12,-12 39,-6 14,-13 22,-23 3,-4 15,-3 22,-12 9,-13 -4,-3 8,-13 18,-17 -4,10 25,-26 8,-10 9,-5 17,-17 29,-14 43,-11 34,-48l15 -6c16,-8 17,-10 37,-11 0,-11 -1,-13 -3,-21 -6,-36 -9,3 -8,-51 -14,0 -8,1 -17,-3l6 -11c0,-1 1,-1 2,-2 8,-7 -5,-3 13,-5 -2,-8 -11,-14 -17,-19 -5,3 -11,6 -16,9 -31,20 -53,46 -70,78 -2,9 -8,21 -13,29 -1,3 -2,6 -3,8l-1 2 -2 0c-41,1 -72,14 -95,35 -24,21 -41,51 -55,85l0 0c0,1 0,2 0,3 0,12 -17,42 -20,41 -3,-1 -23,-30 -23,-41 0,-5 1,-9 4,-12 -12,-28 -29,-51 -52,-70 -14,-12 -31,-22 -50,-30zm137 101c14,-32 31,-60 54,-80 24,-22 55,-35 96,-37l0 0c-7,-8 -19,-28 -19,-38 0,-7 3,-13 8,-17 -7,-24 -19,-49 -35,-70 -26,14 -51,33 -75,55l-1 1 0 0c-22,17 -38,45 -48,77 -10,31 -13,67 -8,103 3,-2 7,-3 11,-3 7,0 14,4 18,9zm172 -163c17,-29 39,-53 67,-71 5,-3 10,-6 15,-9 -1,-3 0,-5 5,-8 12,-6 2,0 5,0 0,0 1,0 2,0l2 1c32,-14 72,-22 119,-23 -15,-3 -29,-6 -43,-8 0,2 0,4 0,7l-48 7c-21,5 -26,-1 -27,-19 -7,0 -13,0 -20,1l2 31c-24,0 -38,-1 -59,-6 -13,-3 -18,-8 -21,-12 -21,6 -41,14 -61,25 16,22 28,46 35,70 2,-1 4,-1 7,-1 9,0 17,6 20,14zm107 -84l3 1c1,0 2,1 2,1 1,0 2,0 2,1l7 2c5,23 -1,27 45,22 10,-1 3,-7 13,-2 17,8 -13,27 -20,32 0,10 0,16 4,23 5,8 -1,1 5,5 5,3 0,1 8,4 0,-14 1,-14 3,-24 10,7 9,14 13,28 0,2 4,15 5,16 4,11 -3,4 10,11 13,-27 -11,-31 7,-38l0 -27c19,0 14,3 20,-7 8,-14 4,-26 6,-35 2,-6 5,-7 7,-17 2,-9 0,-12 0,-14l0 3c-57,-3 -102,4 -139,18zm-83 186l-4 -7 4 7zm-440 -117l1 -4 3 4 -3 0zm672 -103c1,-1 3,-3 4,-4 19,-19 8,-11 32,-9 -15,-22 -3,-5 3,-27 -11,-5 -17,-6 -27,-3 4,-7 5,-8 7,-17 -13,-6 -5,0 -10,-14 -16,4 -13,6 -24,14 -9,-2 -10,-3 -17,-7 -15,29 -19,15 -35,37 -25,33 -28,-5 -30,22 8,1 11,1 12,4 23,3 47,8 71,14 -7,-9 -18,-28 -18,-37 0,-12 10,-21 21,-21 12,0 21,10 21,21 0,7 -5,19 -11,29zm-160 -12c0,-3 0,-6 0,-10l-21 4 0 6c7,0 13,-1 20,-1z"/>
   <polygon class="fil0" points="10,373 14,373 11,369 "/>
   <polygon class="fil0" points="117,510 121,510 117,507 "/>
   <polygon class="fil0" points="450,489 446,483 "/>
  </g>
 </g>
</svg>
