<?xml version="1.0" encoding="UTF-8"?>
<!DOCTYPE svg PUBLIC "-//W3C//DTD SVG 1.1//EN" "http://www.w3.org/Graphics/SVG/1.1/DTD/svg11.dtd">
<!-- Creator: CorelDRAW X6 -->
<svg xmlns="http://www.w3.org/2000/svg" xml:space="preserve" width="0.759835in" height="0.509646in" version="1.1" style="shape-rendering:geometricPrecision; text-rendering:geometricPrecision; image-rendering:optimizeQuality; fill-rule:evenodd; clip-rule:evenodd"
viewBox="0 0 90 60"
 xmlns:xlink="http://www.w3.org/1999/xlink">
 <defs>
  <style type="text/css">
   <![CDATA[
    .str0 {stroke:#ab5410;stroke-width:1.97131}
    .str2 {stroke:#ab5410;stroke-width:3.28598}
    .str1 {stroke:#ab5410;stroke-width:4.10701}
    .fil0 {fill:none}
   ]]>
  </style>
 </defs>
 <g id="Layer_x0020_1">
  <metadata id="CorelCorpID_0Corel-Layer"/>
  <g id="_723166896">
   <g>
    <rect class="fil0 str0" x="2" y="2" width="22" height="19"/>
    <rect class="fil0 str0" x="23" y="2" width="22" height="19"/>
    <rect class="fil0 str0" x="45" y="2" width="22" height="19"/>
    <rect class="fil0 str0" x="67" y="2" width="22" height="19"/>
    <rect class="fil0 str0" x="2" y="21" width="22" height="19"/>
    <rect class="fil0 str0" x="23" y="21" width="22" height="19"/>
    <rect class="fil0 str0" x="45" y="21" width="22" height="19"/>
    <rect class="fil0 str0" x="67" y="21" width="22" height="19"/>
    <rect class="fil0 str0" x="2" y="40" width="22" height="19"/>
    <rect class="fil0 str0" x="23" y="40" width="22" height="19"/>
    <rect class="fil0 str0" x="45" y="40" width="22" height="19"/>
    <rect class="fil0 str0" x="67" y="40" width="22" height="19"/>
    <polyline class="fil0 str1" points="2,40 30,13 46,29 52,23 61,32 88,2 "/>
   </g>
   <rect class="fil0 str2" x="2" y="2" width="87" height="57"/>
  </g>
 </g>
</svg>
