<?xml version="1.0" encoding="UTF-8"?>
<!DOCTYPE svg PUBLIC "-//W3C//DTD SVG 1.1//EN" "http://www.w3.org/Graphics/SVG/1.1/DTD/svg11.dtd">
<!-- Creator: CorelDRAW X6 -->
<svg xmlns="http://www.w3.org/2000/svg" xml:space="preserve" width="0.778787in" height="0.937677in" version="1.1" style="shape-rendering:geometricPrecision; text-rendering:geometricPrecision; image-rendering:optimizeQuality; fill-rule:evenodd; clip-rule:evenodd"
viewBox="0 0 227 273"
 xmlns:xlink="http://www.w3.org/1999/xlink">
 <defs>
  <style type="text/css">
   <![CDATA[
    .str1 {stroke:#ab5410;stroke-width:6.06285}
    .str0 {stroke:#ab5410;stroke-width:8.0838}
    .fil0 {fill:none}
    .fil1 {fill:#ab5410}
   ]]>
  </style>
 </defs>
 <g id="Layer_x0020_1">
  <metadata id="CorelCorpID_0Corel-Layer"/>
  <g id="_721325920">
   <path class="fil0 str0" d="M78 116l9 -58c0,-6 6,-10 12,-7l55 21c4,2 7,2 9,6l58 103c2,4 0,10 -4,13l-68 38c-5,3 -11,2 -13,-3l-58 -103c-2,-4 -1,-7 0,-11z"/>
   <circle class="fil1" transform="matrix(1.20306 -0.680257 0.690944 1.22196 113.924 90.8771)" r="7"/>
   <rect class="fil1" transform="matrix(1.14475 -0.592006 1.40188 2.7108 124.311 176.932)" width="54" height="9" rx="13" ry="13"/>
   <path class="fil0 str0" d="M114 91c0,0 3,-39 -5,-64 -12,-37 -44,-29 -37,22"/>
   <path class="fil0 str0" d="M39 268l-3 -17c0,0 -11,9 -18,-5l-3 2c0,0 -3,1 -5,-2 -2,-4 -5,-10 -5,-10 0,0 -2,-2 1,-4l3 -2 -3 -6c0,0 0,-1 -1,-2 0,-2 1,-6 8,-11l20 -12 2 4c0,0 21,-12 26,-32 2,-4 1,-11 5,-12 4,-2 6,0 9,6 3,5 24,43 32,57l2 4c0,0 2,4 1,7 -1,3 -5,2 -5,2 0,0 -5,-4 -13,-4 -8,0 -24,1 -38,5l2 4 -9 5 3 21 -11 2z"/>
   <line class="fil0 str1" x1="34" y1="203" x2="53" y2= "236" />
  </g>
 </g>
</svg>
