<?xml version="1.0" encoding="UTF-8"?>
<!DOCTYPE svg PUBLIC "-//W3C//DTD SVG 1.1//EN" "http://www.w3.org/Graphics/SVG/1.1/DTD/svg11.dtd">
<!-- Creator: CorelDRAW X6 -->
<svg xmlns="http://www.w3.org/2000/svg" xml:space="preserve" width="0.668366in" height="0.686437in" version="1.1" style="shape-rendering:geometricPrecision; text-rendering:geometricPrecision; image-rendering:optimizeQuality; fill-rule:evenodd; clip-rule:evenodd"
viewBox="0 0 93 95"
 xmlns:xlink="http://www.w3.org/1999/xlink">
 <defs>
  <style type="text/css">
   <![CDATA[
    .str0 {stroke:#ab5410;stroke-width:3.85382}
    .fil1 {fill:none}
    .fil0 {fill:#ab5410}
   ]]>
  </style>
 </defs>
 <g id="Layer_x0020_1">
  <metadata id="CorelCorpID_0Corel-Layer"/>
  <path class="fil0" d="M86 22l-30 0 0 3c2,0 5,0 6,0 3,1 3,3 3,6l0 34c0,3 -2,6 -5,7 -1,0 -2,0 -5,0 -1,0 -4,0 -6,0 -1,0 -1,0 -2,0 -1,0 -3,0 -5,0 -4,0 -6,-3 -6,-6l-24 0 0 7c0,4 3,7 7,7l67 0c4,0 7,-3 7,-7l0 -45c0,-4 -3,-7 -7,-7z"/>
  <path class="fil0" d="M43 28c-3,0 -3,2 -3,4l0 31c0,3 0,5 2,6 1,1 6,0 7,0 1,0 7,0 8,0 3,0 3,-2 3,-4l0 -31c0,-3 0,-5 -2,-6 -1,-1 -6,0 -7,0 -1,0 -7,0 -8,0zm-1 35c0,0 17,0 17,0l0 -30 0 0 -17 0 0 0 0 30zm6 -32l5 0c0,0 0,0 0,-1 0,0 0,0 -1,0l-4 0c0,0 -1,0 -1,0 0,0 0,1 0,1zm2 34c-2,1 -2,4 1,4 1,0 2,-1 1,-2 0,-1 -1,-2 -2,-1z"/>
  <path class="fil0" d="M6 0l40 0c3,0 6,3 6,6l0 19c-1,0 -1,0 -1,0 -1,0 -2,0 -3,0l0 -18c0,-1 -1,-2 -2,-2l-39 0c-1,0 -2,1 -2,2l0 43c0,1 1,2 2,2l30 0 0 11 -30 0c-3,0 -6,-3 -6,-6l0 -52c0,-3 3,-6 6,-6zm20 54c2,0 3,2 3,3 0,2 -2,3 -3,3 -2,0 -3,-2 -3,-3 0,-2 2,-3 3,-3z"/>
  <rect class="fil1 str0" x="45" y="82" width="15" height="12"/>
  <line class="fil1 str0" x1="33" y1="93" x2="71" y2= "93" />
 </g>
</svg>
