<?xml version="1.0" encoding="UTF-8"?>
<!DOCTYPE svg PUBLIC "-//W3C//DTD SVG 1.1//EN" "http://www.w3.org/Graphics/SVG/1.1/DTD/svg11.dtd">
<!-- Creator: CorelDRAW X6 -->
<svg xmlns="http://www.w3.org/2000/svg" xml:space="preserve" width="0.868197in" height="0.509335in" version="1.1" style="shape-rendering:geometricPrecision; text-rendering:geometricPrecision; image-rendering:optimizeQuality; fill-rule:evenodd; clip-rule:evenodd"
viewBox="0 0 115 68"
 xmlns:xlink="http://www.w3.org/1999/xlink">
 <defs>
  <style type="text/css">
   <![CDATA[
    .str0 {stroke:#ab5410;stroke-width:3.6864}
    .fil1 {fill:none}
    .fil0 {fill:#ab5410}
   ]]>
  </style>
 </defs>
 <g id="Layer_x0020_1">
  <metadata id="CorelCorpID_0Corel-Layer"/>
  <path class="fil0" d="M55 33c0,6 0,10 3,15 1,2 2,3 3,5 5,7 12,11 21,13 5,1 11,0 16,-2 3,-1 5,-2 7,-4 2,-1 4,-4 5,-6 3,-5 5,-11 5,-18l0 -5c0,-1 0,-1 -1,-1l-28 0c0,0 -1,0 -1,1l0 10 18 0c0,3 -3,7 -5,8 0,0 -1,0 -1,1 -4,4 -14,5 -20,2 -1,0 -1,0 -1,-1 -1,0 -1,-1 -1,-1 -1,-1 -3,-3 -4,-4 -5,-7 -5,-15 0,-23 0,-1 1,-1 1,-1 0,-1 1,-1 1,-1 4,-3 8,-5 14,-5 6,0 8,2 12,5 1,0 8,-7 8,-8 -1,-1 -3,-2 -4,-3 -4,-3 -10,-5 -15,-5 -6,0 -10,0 -15,3 -2,1 -3,2 -5,3 -6,4 -10,11 -12,17 0,2 -1,4 -1,6z"/>
  <path class="fil1 str0" d="M57 53c1,1 1,1 2,2 -6,7 -15,11 -24,11 -18,0 -32,-14 -32,-32 0,-18 14,-32 32,-32 10,0 19,5 25,12"/>
  <path class="fil1 str0" d="M58 55c-6,7 -15,11 -24,11 -11,0 -21,-6 -26,-14 6,-5 15,-7 26,-7 8,0 15,1 20,4 1,2 2,3 3,4 1,1 1,1 2,2z"/>
  <path class="fil1 str0" d="M34 2c10,0 18,4 24,11 0,0 1,1 1,1 -2,2 -3,4 -4,6 -6,3 -13,4 -21,4 -11,0 -21,-3 -27,-8 6,-9 15,-14 27,-14z"/>
  <path class="fil1 str0" d="M34 2c8,0 15,14 15,32 0,18 -7,32 -15,32 -8,0 -15,-14 -15,-32 0,-18 7,-32 15,-32z"/>
 </g>
</svg>
