<?xml version="1.0" encoding="UTF-8"?>
<!DOCTYPE svg PUBLIC "-//W3C//DTD SVG 1.1//EN" "http://www.w3.org/Graphics/SVG/1.1/DTD/svg11.dtd">
<!-- Creator: CorelDRAW X6 -->
<svg xmlns="http://www.w3.org/2000/svg" xml:space="preserve" width="0.793843in" height="1.18939in" version="1.1" style="shape-rendering:geometricPrecision; text-rendering:geometricPrecision; image-rendering:optimizeQuality; fill-rule:evenodd; clip-rule:evenodd"
viewBox="0 0 158 236"
 xmlns:xlink="http://www.w3.org/1999/xlink">
 <defs>
  <style type="text/css">
   <![CDATA[
    .fil0 {fill:#b7b6b6}
   ]]>
  </style>
 </defs>
 <g id="Layer_x0020_1">
  <metadata id="CorelCorpID_0Corel-Layer"/>
  <g id="_1003909040">
   <path class="fil0" d="M37 156c6,-3 25,-3 28,-6 5,-5 7,-20 13,-23 7,3 9,16 13,22 3,4 3,3 14,4 5,1 11,1 15,3 -1,5 -18,19 -19,21 1,8 4,20 4,27 -7,1 -20,-11 -26,-11 -3,0 -20,10 -22,11 0,0 -1,1 -4,-1l4 -28c-4,-3 -7,-6 -10,-9 -7,-7 -7,-4 -9,-11zm35 80l15 0c6,-3 11,-1 24,-8 57,-31 37,-123 -33,-123 -56,0 -87,66 -48,109 18,20 33,19 41,22z"/>
   <path class="fil0" d="M152 0l-60 0c-7,5 -21,39 -26,49 -4,9 -8,17 -12,26 -4,8 -11,18 -10,27 12,-5 19,-8 34,-9 20,0 27,6 37,8 2,-9 37,-75 42,-88 3,-7 1,-9 -4,-13z"/>
   <path class="fil0" d="M66 0l-60 0c-10,7 -4,12 0,20l30 63c1,-1 1,-1 2,-2l19 -41c4,-8 7,-14 10,-21 4,-9 9,-13 0,-20z"/>
  </g>
 </g>
</svg>
