<?xml version="1.0" encoding="UTF-8"?>
<!DOCTYPE svg PUBLIC "-//W3C//DTD SVG 1.1//EN" "http://www.w3.org/Graphics/SVG/1.1/DTD/svg11.dtd">
<!-- Creator: CorelDRAW X6 -->
<svg xmlns="http://www.w3.org/2000/svg" xml:space="preserve" width="0.634669in" height="0.634669in" version="1.1" style="shape-rendering:geometricPrecision; text-rendering:geometricPrecision; image-rendering:optimizeQuality; fill-rule:evenodd; clip-rule:evenodd"
viewBox="0 0 80 80"
 xmlns:xlink="http://www.w3.org/1999/xlink">
 <defs>
  <style type="text/css">
   <![CDATA[
    .str0 {stroke:#ab5410;stroke-width:3.51844}
    .fil0 {fill:none}
    .fil1 {fill:#ab5410}
   ]]>
  </style>
 </defs>
 <g id="Layer_x0020_1">
  <metadata id="CorelCorpID_0Corel-Layer"/>
  <g id="_702645840">
   <line class="fil0 str0" x1="40" y1="80" x2="40" y2= "68" />
   <circle class="fil0 str0" cx="40" cy="40" r="34"/>
   <line class="fil0 str0" x1="40" y1="0" x2="40" y2= "12" />
   <line class="fil0 str0" x1="80" y1="40" x2="68" y2= "40" />
   <line class="fil0 str0" x1="0" y1="40" x2="12" y2= "40" />
   <path class="fil1" d="M54 52l8 0 0 -4c0,-4 -2,-4 -4,-5 -1,0 -2,-1 -3,-2l-1 4 0 0c0,0 0,1 0,2l0 0 0 5z"/>
   <path class="fil1" d="M46 37c0,0 0,0 1,2 0,0 0,0 0,1 0,0 1,0 1,0 1,1 2,1 4,2l0 0c2,0 4,-2 4,-4l1 0c1,0 1,-2 1,-2 0,-1 0,-1 0,-2 0,-1 1,-4 -1,-5 0,0 0,0 -1,-1 -1,-1 -1,-1 -1,-1 -1,-1 -3,-1 -5,0 0,0 -1,0 -1,1 0,0 0,0 0,1 0,1 0,2 0,2 0,0 0,1 0,1 0,1 0,2 0,3 0,1 -1,3 -2,4l0 0z"/>
   <path class="fil1" d="M27 52l26 0 0 -5c0,-4 -2,-4 -5,-5 -1,-1 -2,-1 -3,-2l-1 4c0,1 0,1 -1,2 0,0 0,1 0,1 0,1 0,1 -1,1 0,-1 -1,-2 -1,-3 0,0 3,-4 -1,-4 -3,0 -1,4 -1,4 0,0 -1,2 -1,3 -1,0 -2,-5 -2,-6 0,-1 -1,-1 -1,-2 -1,0 -3,1 -3,2 -1,1 -2,1 -3,2 -1,1 -1,2 -2,4l0 5z"/>
   <path class="fil1" d="M34 29c0,2 0,1 0,2 -1,0 -1,0 -1,1 0,1 0,2 1,3 1,2 0,1 1,3 3,5 9,3 10,-2l1 0c1,0 1,-2 1,-3 0,-1 0,-1 0,-2 0,-1 1,-4 -1,-6 -1,0 0,0 -1,-1 -1,-1 -1,-1 -2,-1 -2,-1 -4,-1 -5,0 -2,1 -4,3 -4,6z"/>
   <path class="fil1" d="M26 52l-8 0 0 -4c0,-4 2,-4 4,-5 1,0 2,-1 3,-2l1 4 0 0c0,0 0,1 0,2l0 0 0 5z"/>
   <path class="fil1" d="M34 37c0,0 0,0 -1,2 0,0 0,0 0,1 0,0 -1,0 -1,0 -1,1 -2,1 -4,2l0 0c-2,0 -4,-2 -4,-4l-1 0c-1,0 -1,-2 -1,-2 0,-1 0,-1 0,-2 0,-1 -1,-4 1,-5 0,0 0,0 1,-1 1,-1 1,-1 1,-1 1,-1 3,-1 5,0 0,0 1,0 1,1 0,0 0,0 0,1 0,1 0,2 0,2 0,0 0,1 0,1 0,1 0,2 0,3 0,1 1,3 2,4l0 0z"/>
   <line class="fil0 str0" x1="40" y1="80" x2="40" y2= "68" />
   <circle class="fil0 str0" cx="40" cy="40" r="34"/>
   <line class="fil0 str0" x1="40" y1="0" x2="40" y2= "12" />
   <line class="fil0 str0" x1="80" y1="40" x2="68" y2= "40" />
   <line class="fil0 str0" x1="0" y1="40" x2="12" y2= "40" />
  </g>
 </g>
</svg>
