<?xml version="1.0" encoding="UTF-8"?>
<!DOCTYPE svg PUBLIC "-//W3C//DTD SVG 1.1//EN" "http://www.w3.org/Graphics/SVG/1.1/DTD/svg11.dtd">
<!-- Creator: CorelDRAW X6 -->
<svg xmlns="http://www.w3.org/2000/svg" xml:space="preserve" width="0.473606in" height="0.554327in" version="1.1" style="shape-rendering:geometricPrecision; text-rendering:geometricPrecision; image-rendering:optimizeQuality; fill-rule:evenodd; clip-rule:evenodd"
viewBox="0 0 159 186"
 xmlns:xlink="http://www.w3.org/1999/xlink">
 <defs>
  <style type="text/css">
   <![CDATA[
    .str0 {stroke:#ab5410;stroke-width:9.3395}
    .fil0 {fill:none}
   ]]>
  </style>
 </defs>
 <g id="Layer_x0020_1">
  <metadata id="CorelCorpID_0Corel-Layer"/>
  <g id="_702688720">
   <circle class="fil0 str0" cx="80" cy="80" r="21"/>
   <path class="fil0 str0" d="M80 32c26,0 48,21 48,48 0,20 -12,37 -30,44l-17 -11 -18 12c-18,-7 -30,-24 -30,-44 0,-26 21,-48 48,-48z"/>
   <path class="fil0 str0" d="M80 5c41,0 75,34 75,75 0,34 -23,63 -54,72l0 -26 -20 -13 -20 13 0 27c-32,-8 -56,-38 -56,-72 0,-41 34,-75 75,-75z"/>
   <line class="fil0 str0" x1="80" y1="186" x2="80" y2= "75" />
   <path class="fil0 str0" d="M80 112l-20 13 0 42c0,3 2,4 3,3l16 -11 16 11c2,1 3,0 3,-3l0 -42 -20 -13z"/>
  </g>
 </g>
</svg>
